<?xml version="1.0" encoding="UTF-8" standalone="no"?>
<svg
   xmlns:dc="http://purl.org/dc/elements/1.1/"
   xmlns:cc="http://creativecommons.org/ns#"
   xmlns:rdf="http://www.w3.org/1999/02/22-rdf-syntax-ns#"
   xmlns:svg="http://www.w3.org/2000/svg"
   xmlns="http://www.w3.org/2000/svg"
   viewBox="0 0 1000 666.66669"
   height="666.66669"
   width="1000"
   xml:space="preserve"
   id="svg2"
   version="1.1"><metadata
     id="metadata8"><rdf:RDF><cc:Work
         rdf:about=""><dc:format>image/svg+xml</dc:format><dc:type
           rdf:resource="http://purl.org/dc/dcmitype/StillImage" /></cc:Work></rdf:RDF></metadata><defs
     id="defs6"><clipPath
       id="clipPath24"
       clipPathUnits="userSpaceOnUse"><path
         id="path22"
         d="M 0,500 H 750 V 0 H 0 Z" /></clipPath><clipPath
       id="clipPath32"
       clipPathUnits="userSpaceOnUse"><path
         id="path30"
         d="m 568.442,82.0563 h 69.234 V 67.469 h -69.234 z" /></clipPath><clipPath
       id="clipPath60"
       clipPathUnits="userSpaceOnUse"><path
         id="path58"
         d="M 0,500 H 750 V 0 H 0 Z" /></clipPath><clipPath
       id="clipPath112"
       clipPathUnits="userSpaceOnUse"><path
         id="path110"
         d="M 0,500 H 750 V 0 H 0 Z" /></clipPath><clipPath
       id="clipPath140"
       clipPathUnits="userSpaceOnUse"><path
         id="path138"
         d="M 0,500 H 750 V 0 H 0 Z" /></clipPath><pattern
       id="pattern222"
       height="300"
       width="300"
       y="0"
       x="0"
       patternUnits="userSpaceOnUse"
       patternTransform="matrix(0.0239455,0,0,0.0239455,-7747.1567,7959.8836)"><g
         id="g204"
         transform="translate(150,199.9532)"><path
           id="path202"
           style="fill:#180d57;fill-opacity:1;fill-rule:nonzero;stroke:none"
           d="m 0,0 c -27.588,0 -49.953,-22.365 -49.953,-49.953 0,-27.589 22.365,-49.953 49.953,-49.953 27.589,0 49.953,22.364 49.953,49.953 C 49.953,-22.365 27.589,0 0,0" /></g><g
         id="g208"
         transform="translate(49.9532,300)"><path
           id="path206"
           style="fill:#180d57;fill-opacity:1;fill-rule:nonzero;stroke:none"
           d="m 0,0 -49.953,0 0,-49.953 C -22.365,-49.953 0,-27.588 0,0" /></g><g
         id="g212"
         transform="translate(0,49.9532)"><path
           id="path210"
           style="fill:#180d57;fill-opacity:1;fill-rule:nonzero;stroke:none"
           d="m 0,0 0,-49.953 49.953,0 C 49.953,-22.365 27.588,0 0,0" /></g><g
         id="g216"
         transform="translate(300,250.0468)"><path
           id="path214"
           style="fill:#180d57;fill-opacity:1;fill-rule:nonzero;stroke:none"
           d="m 0,0 0,49.953 -49.953,0 C -49.953,22.365 -27.588,0 0,0" /></g><g
         id="g220"
         transform="translate(300,49.9532)"><path
           id="path218"
           style="fill:#180d57;fill-opacity:1;fill-rule:nonzero;stroke:none"
           d="M 0,0 C -27.588,0 -49.953,-22.365 -49.953,-49.953 L 0,-49.953 0,0 Z" /></g></pattern><pattern
       id="pattern248"
       height="300"
       width="300"
       y="0"
       x="0"
       patternUnits="userSpaceOnUse"
       patternTransform="matrix(0.0239455,0,0,0.0239455,-7747.1567,7959.8836)"><g
         id="g230"
         transform="translate(150,199.9532)"><path
           id="path228"
           style="fill:#180d57;fill-opacity:1;fill-rule:nonzero;stroke:none"
           d="m 0,0 c -27.588,0 -49.953,-22.365 -49.953,-49.953 0,-27.589 22.365,-49.953 49.953,-49.953 27.589,0 49.953,22.364 49.953,49.953 C 49.953,-22.365 27.589,0 0,0" /></g><g
         id="g234"
         transform="translate(49.9532,300)"><path
           id="path232"
           style="fill:#180d57;fill-opacity:1;fill-rule:nonzero;stroke:none"
           d="m 0,0 -49.953,0 0,-49.953 C -22.365,-49.953 0,-27.588 0,0" /></g><g
         id="g238"
         transform="translate(0,49.9532)"><path
           id="path236"
           style="fill:#180d57;fill-opacity:1;fill-rule:nonzero;stroke:none"
           d="m 0,0 0,-49.953 49.953,0 C 49.953,-22.365 27.588,0 0,0" /></g><g
         id="g242"
         transform="translate(300,250.0468)"><path
           id="path240"
           style="fill:#180d57;fill-opacity:1;fill-rule:nonzero;stroke:none"
           d="m 0,0 0,49.953 -49.953,0 C -49.953,22.365 -27.588,0 0,0" /></g><g
         id="g246"
         transform="translate(300,49.9532)"><path
           id="path244"
           style="fill:#180d57;fill-opacity:1;fill-rule:nonzero;stroke:none"
           d="M 0,0 C -27.588,0 -49.953,-22.365 -49.953,-49.953 L 0,-49.953 0,0 Z" /></g></pattern><pattern
       id="pattern274"
       height="300"
       width="300"
       y="0"
       x="0"
       patternUnits="userSpaceOnUse"
       patternTransform="matrix(0.0256309,0,0,0.0256309,-7743.6667,7948.6636)"><g
         id="g256"
         transform="translate(150,199.9532)"><path
           id="path254"
           style="fill:#180d57;fill-opacity:1;fill-rule:nonzero;stroke:none"
           d="m 0,0 c -27.588,0 -49.953,-22.365 -49.953,-49.953 0,-27.589 22.365,-49.953 49.953,-49.953 27.589,0 49.953,22.364 49.953,49.953 C 49.953,-22.365 27.589,0 0,0" /></g><g
         id="g260"
         transform="translate(49.9532,300)"><path
           id="path258"
           style="fill:#180d57;fill-opacity:1;fill-rule:nonzero;stroke:none"
           d="m 0,0 -49.953,0 0,-49.953 C -22.365,-49.953 0,-27.588 0,0" /></g><g
         id="g264"
         transform="translate(0,49.9532)"><path
           id="path262"
           style="fill:#180d57;fill-opacity:1;fill-rule:nonzero;stroke:none"
           d="m 0,0 0,-49.953 49.953,0 C 49.953,-22.365 27.588,0 0,0" /></g><g
         id="g268"
         transform="translate(300,250.0468)"><path
           id="path266"
           style="fill:#180d57;fill-opacity:1;fill-rule:nonzero;stroke:none"
           d="m 0,0 0,49.953 -49.953,0 C -49.953,22.365 -27.588,0 0,0" /></g><g
         id="g272"
         transform="translate(300,49.9532)"><path
           id="path270"
           style="fill:#180d57;fill-opacity:1;fill-rule:nonzero;stroke:none"
           d="M 0,0 C -27.588,0 -49.953,-22.365 -49.953,-49.953 L 0,-49.953 0,0 Z" /></g></pattern><clipPath
       id="clipPath284"
       clipPathUnits="userSpaceOnUse"><path
         id="path282"
         d="M 85.3113,76.5525 H 559.935 V 29.069 H 85.3113 Z" /></clipPath></defs><g
     transform="matrix(1.3333333,0,0,-1.3333333,0,666.66667)"
     id="g10"><path
       id="path12"
       style="fill:none;fill-opacity:1;fill-rule:nonzero;stroke:none"
       d="M 0,0 H 750 V 500 H 0 Z" /><g
       transform="translate(126.6299,92.5)"
       id="g14"><path
         id="path16"
         style="fill:none;stroke:none;stroke-width:1;stroke-linecap:round;stroke-linejoin:round;stroke-miterlimit:10;stroke-dasharray:none;stroke-opacity:1"
         d="M 0,0 H 552.519" /></g><g
       id="g18"><g
         clip-path="url(#clipPath24)"
         id="g20"><g
           id="g26"><g
             id="g28" /><g
             id="g40"><g
               style="opacity:0.10000598"
               id="g38"
               clip-path="url(#clipPath32)"><g
                 id="g36"
                 transform="translate(637.6758,74.7676)"><path
                   id="path34"
                   style="fill:#080638;fill-opacity:1;fill-rule:nonzero;stroke:none"
                   d="m 0,0 c 0,-4.036 -15.503,-7.299 -34.622,-7.299 -19.109,0 -34.612,3.263 -34.612,7.299 0,4.025 15.503,7.289 34.612,7.289 C -15.503,7.289 0,4.025 0,0" /></g></g></g></g></g></g><text
       id="text48"
       style="font-variant:normal;font-weight:bold;font-stretch:normal;font-size:21.9428997px;font-family:'Quicksand Bold';-inkscape-font-specification:QuicksandBold-Regular;writing-mode:lr-tb;fill:#a9a7db;fill-opacity:1;fill-rule:nonzero;stroke:none"
       transform="matrix(1,0,0,-1,471.7935,443.1997)"><tspan
         id="tspan42"
         y="0"
         x="0 15.469745 22.820616 30.171488 37.522358 53.101818 68.681274 84.151024 91.501892">011100010</tspan><tspan
         id="tspan44"
         y="26.33148"
         x="0.043885801 7.3947573 22.864502 30.215374 45.794834 61.37429 76.844032 84.194908 99.66465">101000101</tspan><tspan
         id="tspan46"
         y="52.66296"
         x="0.043885801 15.623344 31.09309 38.443962 54.023418 69.493164 76.844032 84.194908 99.66465">001001101</tspan></text>
<path
       id="path50"
       style="fill:none;stroke:#dadafd;stroke-width:1;stroke-linecap:butt;stroke-linejoin:miter;stroke-miterlimit:10;stroke-dasharray:none;stroke-opacity:1"
       d="m 280.578,385.446 h -98.616 v 62.91 h 98.616 z" /><path
       id="path52"
       style="fill:none;stroke:#dadafd;stroke-width:1;stroke-linecap:butt;stroke-linejoin:miter;stroke-miterlimit:10;stroke-dasharray:none;stroke-opacity:1"
       d="m 280.578,436.455 h -98.616 v 11.902 h 98.616 z" /><g
       id="g54"><g
         clip-path="url(#clipPath60)"
         id="g56"><g
           transform="translate(216.1816,397.5586)"
           id="g62"><path
             id="path64"
             style="fill:#dadafd;fill-opacity:1;fill-rule:nonzero;stroke:none"
             d="m 0,0 -14.451,12.227 c -0.757,0.64 -0.757,1.807 0,2.447 L 0,26.901 c 0.599,0.507 1.496,0.432 2.002,-0.167 0.507,-0.599 0.432,-1.495 -0.167,-2.002 L -10.052,14.674 c -0.757,-0.64 -0.757,-1.807 0,-2.447 L 1.835,2.168 C 2.434,1.662 2.509,0.766 2.002,0.167 1.496,-0.432 0.599,-0.507 0,0" /></g><g
           transform="translate(244.3564,397.7256)"
           id="g66"><path
             id="path68"
             style="fill:#dadafd;fill-opacity:1;fill-rule:nonzero;stroke:none"
             d="M 0,0 V 0 C -0.507,0.6 -0.432,1.496 0.167,2.002 L 12.055,12.06 c 0.757,0.64 0.757,1.807 0,2.447 L 0.167,24.564 C -0.432,25.071 -0.507,25.967 0,26.566 v 0.001 c 0.507,0.599 1.403,0.674 2.002,0.167 L 16.455,14.507 c 0.756,-0.64 0.756,-1.807 0,-2.447 L 2.002,-0.167 C 1.403,-0.674 0.507,-0.6 0,0" /></g><g
           transform="translate(222.6094,391.1646)"
           id="g70"><path
             id="path72"
             style="fill:#dadafd;fill-opacity:1;fill-rule:nonzero;stroke:none"
             d="m 0,0 v 0 c -0.729,0.292 -1.084,1.119 -0.792,1.847 l 15.138,37.859 c 0.292,0.728 1.118,1.083 1.847,0.792 0.729,-0.291 1.084,-1.119 0.792,-1.848 L 1.847,0.792 C 1.556,0.063 0.729,-0.292 0,0" /></g><g
           transform="translate(193.1309,442.3193)"
           id="g74"><path
             id="path76"
             style="fill:#ff9dc0;fill-opacity:1;fill-rule:nonzero;stroke:none"
             d="m 0,0 c 0,-1.653 -1.34,-2.994 -2.994,-2.994 -1.654,0 -2.994,1.341 -2.994,2.994 0,1.654 1.34,2.995 2.994,2.995 C -1.34,2.995 0,1.654 0,0" /></g><g
           transform="translate(205.3574,442.3193)"
           id="g78"><path
             id="path80"
             style="fill:#dadafd;fill-opacity:1;fill-rule:nonzero;stroke:none"
             d="m 0,0 c 0,-1.653 -1.34,-2.994 -2.994,-2.994 -1.654,0 -2.994,1.341 -2.994,2.994 0,1.654 1.34,2.995 2.994,2.995 C -1.34,2.995 0,1.654 0,0" /></g><g
           transform="translate(217.5845,442.3193)"
           id="g82"><path
             id="path84"
             style="fill:#ffc800;fill-opacity:1;fill-rule:nonzero;stroke:none"
             d="m 0,0 c 0,-1.653 -1.341,-2.994 -2.995,-2.994 -1.653,0 -2.994,1.341 -2.994,2.994 0,1.654 1.341,2.995 2.994,2.995 C -1.341,2.995 0,1.654 0,0" /></g><path
           id="path86"
           style="fill:none;stroke:#dadafd;stroke-width:1;stroke-linecap:butt;stroke-linejoin:miter;stroke-miterlimit:10;stroke-dasharray:none;stroke-opacity:1"
           d="M 182.655,191.342 H 84.039 v 62.911 h 98.616 z" /><path
           id="path88"
           style="fill:none;stroke:#dadafd;stroke-width:1;stroke-linecap:butt;stroke-linejoin:miter;stroke-miterlimit:10;stroke-dasharray:none;stroke-opacity:1"
           d="M 182.655,242.351 H 84.039 v 11.902 h 98.616 z" /><g
           transform="translate(95.2075,248.2158)"
           id="g90"><path
             id="path92"
             style="fill:#ff9dc0;fill-opacity:1;fill-rule:nonzero;stroke:none"
             d="m 0,0 c 0,-1.654 -1.34,-2.994 -2.994,-2.994 -1.654,0 -2.994,1.34 -2.994,2.994 0,1.653 1.34,2.994 2.994,2.994 C -1.34,2.994 0,1.653 0,0" /></g><g
           transform="translate(107.4346,248.2158)"
           id="g94"><path
             id="path96"
             style="fill:#dadafd;fill-opacity:1;fill-rule:nonzero;stroke:none"
             d="m 0,0 c 0,-1.654 -1.341,-2.994 -2.995,-2.994 -1.653,0 -2.994,1.34 -2.994,2.994 0,1.653 1.341,2.994 2.994,2.994 C -1.341,2.994 0,1.653 0,0" /></g><g
           transform="translate(119.6611,248.2158)"
           id="g98"><path
             id="path100"
             style="fill:#ffc800;fill-opacity:1;fill-rule:nonzero;stroke:none"
             d="m 0,0 c 0,-1.654 -1.341,-2.994 -2.994,-2.994 -1.654,0 -2.995,1.34 -2.995,2.994 0,1.653 1.341,2.994 2.995,2.994 C -1.341,2.994 0,1.653 0,0" /></g></g></g><text
       id="text104"
       style="font-variant:normal;font-weight:bold;font-stretch:normal;font-size:33.13330078px;font-family:'Quicksand Bold';-inkscape-font-specification:QuicksandBold-Regular;writing-mode:lr-tb;fill:#dadafd;fill-opacity:1;fill-rule:nonzero;stroke:none"
       transform="matrix(1,0,0,-1,341.6846,206.9004)"><tspan
         id="tspan102"
         y="0"
         x="0 25.545774 46.088421">C++</tspan></text>
<g
       id="g106"><g
         clip-path="url(#clipPath112)"
         id="g108"><path
           id="path114"
           style="fill:none;stroke:#dadafd;stroke-width:1;stroke-linecap:butt;stroke-linejoin:miter;stroke-miterlimit:10;stroke-dasharray:none;stroke-opacity:1"
           d="m 688.597,283.292 h -98.619 v 62.909 h 98.619 z" /><path
           id="path116"
           style="fill:none;stroke:#dadafd;stroke-width:1;stroke-linecap:butt;stroke-linejoin:miter;stroke-miterlimit:10;stroke-dasharray:none;stroke-opacity:1"
           d="m 688.597,334.304 h -98.619 v 11.897 h 98.619 z" /><g
           transform="translate(601.1455,340.1655)"
           id="g118"><path
             id="path120"
             style="fill:#ff9dc0;fill-opacity:1;fill-rule:nonzero;stroke:none"
             d="m 0,0 c 0,-1.653 -1.34,-2.994 -2.994,-2.994 -1.653,0 -2.994,1.341 -2.994,2.994 0,1.654 1.341,2.995 2.994,2.995 C -1.34,2.995 0,1.654 0,0" /></g><g
           transform="translate(613.3721,340.1655)"
           id="g122"><path
             id="path124"
             style="fill:#dadafd;fill-opacity:1;fill-rule:nonzero;stroke:none"
             d="m 0,0 c 0,-1.653 -1.34,-2.994 -2.994,-2.994 -1.653,0 -2.994,1.341 -2.994,2.994 0,1.654 1.341,2.995 2.994,2.995 C -1.34,2.995 0,1.654 0,0" /></g><g
           transform="translate(625.5996,340.1655)"
           id="g126"><path
             id="path128"
             style="fill:#ffc800;fill-opacity:1;fill-rule:nonzero;stroke:none"
             d="m 0,0 c 0,-1.653 -1.341,-2.994 -2.995,-2.994 -1.653,0 -2.994,1.341 -2.994,2.994 0,1.654 1.341,2.995 2.994,2.995 C -1.341,2.995 0,1.654 0,0" /></g></g></g><text
       id="text132"
       style="font-variant:normal;font-weight:bold;font-stretch:normal;font-size:33.13330078px;font-family:'Quicksand Bold';-inkscape-font-specification:QuicksandBold-Regular;writing-mode:lr-tb;fill:#dadafd;fill-opacity:1;fill-rule:nonzero;stroke:none"
       transform="matrix(1,0,0,-1,340.293,298.8516)"><tspan
         id="tspan130"
         y="0"
         x="0 25.545774 47.314354">CSS</tspan></text>
<g
       id="g134"><g
         clip-path="url(#clipPath140)"
         id="g136"><g
           transform="translate(157.0967,353.5264)"
           id="g142"><path
             id="path144"
             style="fill:#dadafd;fill-opacity:1;fill-rule:nonzero;stroke:none"
             d="m 0,0 c -3.839,2.059 -5.285,6.847 -3.225,10.687 2.059,3.839 6.843,5.277 10.683,3.218 C 11.297,11.846 12.739,7.069 10.68,3.229 8.621,-0.61 3.84,-2.059 0,0 m 15.202,-2.413 c -0.458,0.738 -0.432,1.661 0.016,2.404 0.122,0.201 0.24,0.407 0.351,0.616 0.114,0.211 0.221,0.424 0.322,0.638 0.37,0.782 1.121,1.312 1.986,1.339 l 2.956,0.092 -0.3,9.626 -2.954,-0.091 c -0.867,-0.026 -1.661,0.448 -2.077,1.209 -0.228,0.419 -0.48,0.827 -0.753,1.221 -0.493,0.71 -0.562,1.629 -0.153,2.39 l 1.393,2.599 -8.49,4.553 -1.394,-2.599 C 5.697,20.823 4.893,20.372 4.029,20.39 3.55,20.399 3.071,20.384 2.595,20.342 1.731,20.267 0.897,20.666 0.439,21.403 l -1.558,2.511 -8.185,-5.077 1.564,-2.525 c 0.455,-0.733 0.429,-1.651 -0.017,-2.391 -0.122,-0.201 -0.239,-0.406 -0.351,-0.616 -0.112,-0.209 -0.219,-0.42 -0.319,-0.633 -0.371,-0.785 -1.126,-1.316 -1.993,-1.342 l -2.958,-0.09 0.299,-9.626 2.948,0.094 c 0.866,0.027 1.66,-0.447 2.077,-1.207 0.23,-0.42 0.483,-0.829 0.758,-1.225 0.494,-0.71 0.563,-1.63 0.154,-2.392 l -1.393,-2.598 8.491,-4.553 1.393,2.598 c 0.409,0.762 1.214,1.213 2.078,1.195 0.482,-0.011 0.962,0.004 1.44,0.045 0.863,0.075 1.697,-0.325 2.154,-1.062 l 1.553,-2.507 8.184,5.077 z" /></g><g
           transform="translate(643.623,221.001)"
           id="g146"><path
             id="path148"
             style="fill:#dadafd;fill-opacity:1;fill-rule:nonzero;stroke:none"
             d="m 0,0 c -5.371,0 -9.731,4.36 -9.731,9.731 0,5.372 4.36,9.722 9.731,9.722 5.371,0 9.722,-4.35 9.722,-9.722 C 9.722,4.36 5.371,0 0,0 m 17.922,6.236 c -0.927,0.535 -1.437,1.553 -1.382,2.621 0.015,0.29 0.022,0.582 0.022,0.874 0,0.296 -0.007,0.59 -0.022,0.881 -0.055,1.065 0.453,2.079 1.377,2.612 l 3.157,1.822 -5.933,10.284 -3.157,-1.82 C 11.058,22.976 9.919,23.029 9.023,23.614 8.53,23.936 8.02,24.232 7.493,24.501 6.544,24.984 5.934,25.943 5.934,27.009 v 3.635 H -5.944 v -3.635 c 0,-1.066 -0.61,-2.025 -1.559,-2.508 -0.527,-0.269 -1.038,-0.565 -1.53,-0.887 -0.896,-0.585 -2.034,-0.638 -2.961,-0.104 l -3.156,1.82 -5.934,-10.284 3.17,-1.832 c 0.922,-0.532 1.429,-1.545 1.374,-2.609 -0.015,-0.29 -0.022,-0.581 -0.022,-0.874 0,-0.292 0.007,-0.584 0.022,-0.874 0.055,-1.068 -0.456,-2.086 -1.383,-2.619 l -3.161,-1.82 5.934,-10.285 3.147,1.819 c 0.926,0.534 2.065,0.484 2.96,-0.1 0.495,-0.324 1.008,-0.62 1.538,-0.889 0.95,-0.484 1.561,-1.443 1.561,-2.509 v -3.635 H 5.934 v 3.635 c 0,1.066 0.611,2.025 1.561,2.509 0.529,0.269 1.043,0.565 1.538,0.889 0.896,0.584 2.034,0.634 2.96,0.1 l 3.148,-1.819 5.933,10.285 z" /></g><g
           transform="translate(321.7769,413.9141)"
           id="g150"><path
             id="path152"
             style="fill:#dadafd;fill-opacity:1;fill-rule:nonzero;stroke:none"
             d="m 0,0 c -3.858,0 -6.99,3.131 -6.99,6.99 0,3.858 3.132,6.982 6.99,6.982 3.858,0 6.982,-3.124 6.982,-6.982 C 6.982,3.131 3.858,0 0,0 m 12.873,4.479 c -0.666,0.384 -1.033,1.115 -0.993,1.883 0.011,0.208 0.016,0.417 0.016,0.628 0,0.212 -0.005,0.423 -0.016,0.632 -0.039,0.765 0.326,1.493 0.989,1.876 l 2.268,1.308 -4.262,7.387 -2.268,-1.307 C 7.942,16.502 7.124,16.541 6.481,16.96 6.127,17.192 5.76,17.405 5.382,17.598 4.7,17.945 4.262,18.634 4.262,19.399 v 2.611 h -8.531 v -2.611 c 0,-0.765 -0.439,-1.454 -1.12,-1.801 -0.379,-0.193 -0.745,-0.406 -1.099,-0.638 -0.643,-0.419 -1.461,-0.458 -2.127,-0.074 l -2.267,1.307 -4.262,-7.387 2.277,-1.315 c 0.662,-0.383 1.026,-1.11 0.987,-1.874 -0.011,-0.208 -0.016,-0.417 -0.016,-0.627 0,-0.211 0.005,-0.42 0.016,-0.628 0.039,-0.768 -0.327,-1.498 -0.993,-1.882 l -2.271,-1.307 4.262,-7.387 2.261,1.306 c 0.665,0.384 1.483,0.347 2.126,-0.072 0.355,-0.232 0.724,-0.445 1.104,-0.638 0.683,-0.347 1.122,-1.037 1.122,-1.802 v -2.611 h 8.531 v 2.611 c 0,0.765 0.439,1.455 1.122,1.802 0.38,0.193 0.749,0.406 1.104,0.638 0.643,0.419 1.461,0.456 2.126,0.072 l 2.261,-1.306 4.262,7.387 z" /></g><g
           transform="translate(133.1323,387.8691)"
           id="g154"><path
             id="path156"
             style="fill:#dadafd;fill-opacity:1;fill-rule:nonzero;stroke:none"
             d="m 0,0 c -3.858,0 -6.99,3.131 -6.99,6.989 0,3.858 3.132,6.983 6.99,6.983 3.858,0 6.983,-3.125 6.983,-6.983 C 6.983,3.131 3.858,0 0,0 m 12.873,4.479 c -0.666,0.384 -1.033,1.115 -0.993,1.882 0.011,0.209 0.016,0.418 0.016,0.628 0,0.213 -0.005,0.424 -0.016,0.633 -0.039,0.765 0.326,1.493 0.989,1.876 l 2.268,1.308 -4.262,7.387 -2.267,-1.307 C 7.942,16.502 7.124,16.54 6.481,16.96 6.127,17.191 5.76,17.404 5.382,17.597 4.7,17.945 4.262,18.634 4.262,19.398 v 2.612 h -8.531 v -2.612 c 0,-0.764 -0.439,-1.453 -1.12,-1.801 -0.379,-0.193 -0.745,-0.406 -1.099,-0.637 -0.643,-0.42 -1.461,-0.458 -2.127,-0.074 l -2.267,1.307 -4.262,-7.387 2.277,-1.315 c 0.662,-0.383 1.026,-1.11 0.987,-1.874 -0.011,-0.208 -0.016,-0.417 -0.016,-0.628 0,-0.21 0.005,-0.419 0.016,-0.628 0.039,-0.767 -0.327,-1.498 -0.993,-1.881 l -2.271,-1.308 4.262,-7.386 2.261,1.306 c 0.665,0.384 1.483,0.347 2.126,-0.072 0.355,-0.232 0.724,-0.445 1.104,-0.639 0.683,-0.347 1.122,-1.036 1.122,-1.802 v -2.61 h 8.531 v 2.61 c 0,0.766 0.439,1.455 1.122,1.802 0.38,0.194 0.749,0.407 1.104,0.639 0.643,0.419 1.461,0.456 2.126,0.072 l 2.261,-1.306 4.262,7.386 z" /></g><g
           transform="translate(592.2861,233.0029)"
           id="g158"><path
             id="path160"
             style="fill:#ff9dc0;fill-opacity:1;fill-rule:nonzero;stroke:none"
             d="m 0,0 c 0,0 -18.035,12.005 -24.283,35.207 -6.248,23.203 -9.657,72.644 -9.657,72.644 0,0 34.859,-42.125 38.927,-67.597 C 9.056,14.783 0,0 0,0" /></g><g
           transform="translate(615.7959,216.4795)"
           id="g162"><path
             id="path164"
             style="fill:#ff9dc0;fill-opacity:1;fill-rule:nonzero;stroke:none"
             d="m 0,0 c 0,0 -2.933,26.076 9.146,47.434 12.081,21.357 52.812,35.656 52.812,35.656 0,0 -24.408,-46.321 -35.68,-59.553 C 15.008,10.306 0,0 0,0" /></g><g
           transform="translate(614.4785,154.2285)"
           id="g166"><path
             id="path168"
             style="fill:#ff9dc0;fill-opacity:1;fill-rule:nonzero;stroke:none"
             d="M 0,0 C 0,0 2.187,22.1 9.41,35.928 16.633,49.756 42.558,69.283 55.613,74.503 55.613,74.503 39.339,11.817 0,0" /></g><g
           transform="translate(589.127,173.2129)"
           id="g170"><path
             id="path172"
             style="fill:#ff9dc0;fill-opacity:1;fill-rule:nonzero;stroke:none"
             d="m 0,0 c 0,0 -18.765,11.526 -28.918,32.177 -10.153,20.65 -12.269,49.85 -12.269,49.85 0,0 45.565,-36.839 41.187,-82.027" /></g><g
           transform="translate(607.2266,87.5186)"
           id="g174"><path
             id="path176"
             style="fill:#080638;fill-opacity:1;fill-rule:nonzero;stroke:none"
             d="m 0,0 c -4.111,16.753 -5.815,34.059 -5.981,51.325 -0.123,8.643 0.404,17.288 1.284,25.889 0.9,8.6 2.291,17.156 4.239,25.592 1.991,8.421 4.529,16.725 7.625,24.798 l 2.325,6.047 c 0.799,2.007 1.67,3.986 2.501,5.979 l 1.261,2.985 c 0.438,0.987 0.897,1.965 1.355,2.944 0.932,1.95 1.814,3.922 2.786,5.852 3.83,7.746 8.103,15.279 12.895,22.47 1.213,1.787 2.481,3.538 3.748,5.286 1.317,1.712 2.605,3.446 4.003,5.093 2.759,3.314 5.659,6.544 8.987,9.29 -1.605,-1.436 -3.088,-3.001 -4.495,-4.628 -0.723,-0.795 -1.408,-1.625 -2.09,-2.455 -0.696,-0.82 -1.359,-1.666 -2.007,-2.523 -1.338,-1.683 -2.562,-3.452 -3.815,-5.196 -1.202,-1.781 -2.404,-3.562 -3.551,-5.378 -4.604,-7.254 -8.71,-14.819 -12.356,-22.597 -0.928,-1.936 -1.764,-3.917 -2.651,-5.872 l -1.318,-2.938 -1.234,-2.976 c -0.813,-1.988 -1.665,-3.959 -2.447,-5.96 l -2.271,-6.03 C 5.771,118.96 3.322,110.732 1.399,102.373 -2.587,85.681 -4.306,68.492 -4.519,51.322 -4.629,42.731 -4.293,34.131 -3.542,25.563 -2.834,16.992 -1.72,8.443 0,0" /></g><g
           transform="translate(574.793,297.8457)"
           id="g178"><path
             id="path180"
             style="fill:#080638;fill-opacity:1;fill-rule:nonzero;stroke:none"
             d="m 0,0 c 2.691,-7.748 5.103,-15.589 7.49,-23.438 2.316,-7.87 4.534,-15.77 6.598,-23.714 1.024,-3.973 2.051,-7.949 2.952,-11.953 l 1.374,-6.003 1.281,-6.025 c 1.63,-8.05 3.187,-16.124 4.218,-24.294 1.002,-8.16 1.777,-16.33 2.44,-24.511 0.635,-8.182 1.261,-16.364 1.643,-24.559 0.411,-8.193 0.762,-16.388 1.034,-24.585 0.205,-8.199 0.426,-16.397 0.432,-24.6 -0.439,8.19 -0.844,16.377 -1.366,24.558 -0.462,8.184 -0.977,16.364 -1.565,24.537 -1.183,16.341 -2.41,32.693 -4.509,48.919 -2.036,16.214 -5.582,32.231 -9.352,48.163 -1.886,7.97 -3.946,15.901 -6.074,23.814 C 4.513,-15.764 2.281,-7.877 0,0" /></g><g
           transform="translate(643.374,200.2969)"
           id="g182"><path
             id="path184"
             style="fill:#080638;fill-opacity:1;fill-rule:nonzero;stroke:none"
             d="m 0,0 c -3.97,-6.183 -7.872,-12.393 -11.755,-18.609 -3.857,-6.232 -7.672,-12.485 -11.306,-18.837 -3.651,-6.34 -7.129,-12.777 -10.253,-19.376 -1.53,-3.314 -2.978,-6.666 -4.165,-10.112 -1.209,-3.433 -2.154,-6.985 -2.279,-10.664 -0.12,1.828 -0.081,3.696 0.236,5.516 l 0.207,1.373 0.29,1.355 0.294,1.358 0.358,1.339 c 0.99,3.563 2.269,7.037 3.698,10.439 1.428,3.403 3.04,6.721 4.689,10.016 1.68,3.278 3.461,6.502 5.271,9.706 1.853,3.181 3.742,6.337 5.69,9.456 1.971,3.104 3.955,6.2 6.026,9.237 C -8.895,-11.705 -4.57,-5.755 0,0" /></g><g
           transform="translate(567.3271,220.9023)"
           id="g186"><path
             id="path188"
             style="fill:#080638;fill-opacity:1;fill-rule:nonzero;stroke:none"
             d="m 0,0 c 4.614,-8.051 8.862,-16.312 12.827,-24.705 3.98,-8.389 7.657,-16.924 11.003,-25.595 3.31,-8.68 6.31,-17.503 8.573,-26.536 1.128,-4.516 2.071,-9.083 2.706,-13.697 0.584,-4.614 0.919,-9.297 0.47,-13.924 0.016,4.641 -0.504,9.245 -1.393,13.776 -0.85,4.537 -1.979,9.017 -3.221,13.461 -1.259,4.442 -2.661,8.844 -4.168,13.211 -1.481,4.376 -3.081,8.714 -4.747,13.027 -1.631,4.326 -3.374,8.611 -5.143,12.885 -1.75,4.284 -3.591,8.53 -5.429,12.778 C 7.751,-16.844 3.959,-8.39 0,0" /></g><g
           transform="translate(625.6357,142.1172)"
           id="g190"><path
             id="path192"
             style="fill:#ffc800;fill-opacity:1;fill-rule:nonzero;stroke:none"
             d="m 0,0 -0.324,-5.181 -0.019,-0.2 -0.086,-1.326 v -0.096 l -0.009,-0.104 -0.086,-1.326 -0.01,-0.21 -0.086,-1.317 -0.009,-0.2 -0.706,-11.153 -0.019,-0.315 -0.077,-1.212 -0.019,-0.314 -0.029,-0.448 -0.057,-0.764 -0.019,-0.314 -0.076,-1.212 -0.019,-0.315 -2.547,-40.232 h -36.759 l -2.51,39.631 -0.038,0.505 -0.057,1.012 -0.039,0.515 -0.056,1.012 -0.02,0.162 -0.018,0.352 -0.068,1.012 -0.028,0.515 -0.782,12.335 -0.02,0.354 -0.076,1.173 -0.028,0.372 -0.029,0.486 -0.038,0.659 -0.029,0.353 -0.066,1.192 -0.029,0.354 L -45.154,0 Z" /></g><g
           transform="translate(625.207,135.3145)"
           id="g194"><path
             id="path196"
             style="fill:#080638;fill-opacity:1;fill-rule:nonzero;stroke:none"
             d="m 0,0 -0.01,-0.104 -0.086,-1.327 -0.009,-0.21 -0.086,-1.316 -0.009,-0.2 -0.706,-11.154 -0.02,-0.314 -0.076,-1.212 -0.019,-0.314 -0.029,-0.449 h -42.197 l -0.019,0.353 -0.067,1.012 -0.028,0.514 -0.783,12.336 -0.019,0.354 -0.076,1.173 -0.029,0.372 L -44.296,0 Z" /></g><path
           id="path198"
           style="fill:#ffc800;fill-opacity:1;fill-rule:nonzero;stroke:none"
           d="m 629.092,131.65 h -52.066 v 12.827 h 52.066 z" /><g
           transform="translate(109.877,301.981)"
           id="g200"><path
             id="path224"
             style="fill:url(#pattern222);fill-opacity:1;fill-rule:nonzero;stroke:none"
             d="M 0,0 V 45.61 L 46.504,0 Z" /></g><g
           transform="translate(617.5605,399.2354)"
           id="g226"><path
             id="path250"
             style="fill:url(#pattern248);fill-opacity:1;fill-rule:nonzero;stroke:none"
             d="m 0,0 c 0,-5.62 -4.557,-10.176 -10.177,-10.176 -5.62,0 -10.176,4.556 -10.176,10.176 0,5.621 4.556,10.177 10.176,10.177 C -4.557,10.177 0,5.621 0,0" /></g><g
           transform="translate(667.7031,359.9961)"
           id="g252"><path
             id="path276"
             style="fill:url(#pattern274);fill-opacity:1;fill-rule:nonzero;stroke:none"
             d="m 0,0 c 0,-5.009 -1.297,-9.712 -3.567,-13.795 h -49.706 c -2.271,4.083 -3.568,8.786 -3.568,13.795 0,15.703 12.727,28.43 28.42,28.43 C -12.717,28.43 0,15.703 0,0" /></g><g
           id="g278"><g
             id="g280" /><g
             id="g292"><g
               style="opacity:0.10000598"
               id="g290"
               clip-path="url(#clipPath284)"><g
                 id="g288"
                 transform="translate(559.9355,59.377)"><path
                   id="path286"
                   style="fill:#080638;fill-opacity:1;fill-rule:nonzero;stroke:none"
                   d="m 0,0 c 0,-9.49 -71.811,-17.185 -160.393,-17.185 -26.675,0 -51.833,0.702 -73.957,1.932 0.038,-0.144 0.057,-0.29 0.057,-0.435 0,-8.071 -53.798,-14.62 -120.161,-14.62 -66.362,0 -120.17,6.549 -120.17,14.62 0,8.079 53.808,14.627 120.17,14.627 11.964,0 23.517,-0.213 34.422,-0.606 -0.496,0.547 -0.754,1.103 -0.754,1.667 0,9.489 71.81,17.176 160.393,17.176 C -71.811,17.176 0,9.489 0,0" /></g></g></g></g><g
           transform="translate(436.0078,392.1377)"
           id="g294"><path
             id="path296"
             style="fill:#080638;fill-opacity:1;fill-rule:nonzero;stroke:none"
             d="m 0,0 c -2.577,-2.136 -5.119,-3.801 -7.625,-5.059 4.004,7.24 2.89,23.292 2.443,20.984 -2.14,-11.03 -8.677,-23.237 -11.282,-23.906 -0.018,0 -0.027,-0.009 -0.045,-0.009 -7.011,-1.122 -13.459,0.588 -18.89,3.411 0,0.009 0.008,0.027 0.017,0.037 5.2,8.207 4.495,24.54 4.156,23.535 C -34.899,8.216 -42.963,1.746 -44.39,1.719 h -0.008 c -5.441,4.905 -8.393,9.872 -7.653,10.406 5.378,3.891 9.766,13.646 13.682,23.934 v 0.009 c 3.871,10.143 7.277,20.785 10.721,26.82 -0.009,0.009 0,0.009 0,0.018 0.008,0.018 0.017,0.027 0.035,0.045 0.098,0.172 0.196,0.335 0.295,0.498 7.063,11.718 17.596,9.682 24.17,6.343 C 19.186,58.454 3.318,2.76 0,0" /></g><g
           transform="translate(417.3594,462.4233)"
           id="g298"><path
             id="path300"
             style="fill:#080638;fill-opacity:1;fill-rule:nonzero;stroke:none"
             d="m 0,0 c -4.382,-1.169 -7.892,-5.324 -10.092,-9.129 -2.925,-5.059 -4.784,-10.745 -7.164,-16.074 -4.702,-10.528 -10.719,-20.255 -18.389,-28.831 -0.169,-0.19 0.082,-0.427 0.272,-0.275 8.368,6.702 13.963,16.133 18.49,25.792 2.315,4.937 4.094,10.086 6.274,15.079 1.192,2.732 2.595,5.388 4.475,7.704 1.828,2.249 3.957,3.618 6.443,4.991 C 0.712,-0.521 0.436,0.116 0,0" /></g><g
           transform="translate(436.7129,425.0957)"
           id="g302"><path
             id="path304"
             style="fill:#ff9581;fill-opacity:1;fill-rule:nonzero;stroke:none"
             d="m 0,0 c -7.49,-3.735 -12.721,-40.207 -16.967,-42.221 -7.263,-3.445 -25.205,-0.13 -31.53,-0.902 -3.905,-0.476 -13.997,-14.268 -11.683,-17.045 2.314,-2.777 44.451,-7.894 54.925,-3.255 C 0.667,-60.8 5.959,-35.484 6.779,-24.376 7.599,-13.268 3.403,1.697 0,0" /></g><g
           transform="translate(435.1953,361.3887)"
           id="g306"><path
             id="path308"
             style="fill:#00c7b5;fill-opacity:1;fill-rule:nonzero;stroke:none"
             d="m 0,0 c -0.334,-0.438 -0.678,-0.811 -1.03,-1.135 -6.947,-6.354 -49.992,-4.656 -52.149,-2.796 -2.165,1.87 -0.868,4.761 -0.868,4.761 l 10.896,18.833 c 0,0 1.536,2.929 5.237,2.748 3.712,-0.182 18.947,-2.08 22.296,-0.439 3.358,1.65 7.051,31.549 15.932,41.519 1.221,1.374 2.385,1.441 3.455,0.62 C 6.888,61.708 9.148,51.699 9.378,44.115 9.664,34.451 6.287,8.081 0,0" /></g><g
           transform="translate(394.3662,383.4189)"
           id="g310"><path
             id="path312"
             style="fill:#00c7b5;fill-opacity:1;fill-rule:nonzero;stroke:none"
             d="m 0,0 -12.374,-23.467 c 0,0 -5.968,3.77 -6.012,3.87 -0.044,0.1 10.393,19.759 10.892,19.977 C -6.994,0.599 0,0 0,0" /></g><g
           transform="translate(382.3447,360.4141)"
           id="g314"><path
             id="path316"
             style="fill:#080638;fill-opacity:1;fill-rule:nonzero;stroke:none"
             d="m 0,0 c 2.008,3.497 10.619,18.325 12.038,22.514 0.051,0.149 -0.156,0.282 -0.251,0.14 C 9.458,19.174 1.501,4.279 -0.266,0.149 -0.397,-0.159 -0.169,-0.294 0,0" /></g><g
           transform="translate(435.1953,361.3887)"
           id="g318"><path
             id="path320"
             style="fill:#080638;fill-opacity:1;fill-rule:nonzero;stroke:none"
             d="M 0,0 -4.274,43.294 3.769,64.111 C 6.888,61.708 9.148,51.699 9.378,44.115 9.664,34.451 6.287,8.081 0,0" /></g><g
           transform="translate(437.6289,427.4824)"
           id="g322"><path
             id="path324"
             style="fill:#00c7b5;fill-opacity:1;fill-rule:nonzero;stroke:none"
             d="m 0,0 c -2.446,-5.126 -8.423,-27.426 -6.232,-33.365 2.219,-6.016 8.855,-8.053 8.855,-8.053 0,0 4.937,-24.376 7.945,-26.922 3.008,-2.546 35.562,-3.378 47.595,18.281 C 60.477,-45.893 43.198,-14.42 30.47,-4.007 21.013,3.731 5.87,12.295 0,0" /></g><g
           transform="translate(461.8047,395.0493)"
           id="g326"><path
             id="path328"
             style="fill:#080638;fill-opacity:1;fill-rule:nonzero;stroke:none"
             d="m 0,0 c -2.162,-2.108 -4.072,-4.257 -7.052,-5.212 -3.002,-0.962 -6.275,-0.892 -9.385,-1.251 -0.089,-0.011 -0.095,-0.144 0,-0.145 3.566,-0.022 7.314,-0.495 10.726,0.832 2.67,1.038 4.543,3.142 6.092,5.483 C 0.535,-0.06 0.193,0.188 0,0" /></g><g
           transform="translate(448.9883,387.7861)"
           id="g330"><path
             id="path332"
             style="fill:#080638;fill-opacity:1;fill-rule:nonzero;stroke:none"
             d="m 0,0 c -2.303,-0.098 -4.706,-0.694 -6.938,-1.237 -0.097,-0.024 -0.08,-0.187 0.023,-0.178 2.292,0.212 4.753,0.426 6.961,1.081 C 0.224,-0.281 0.197,0.008 0,0" /></g><g
           transform="translate(440.6943,386.2627)"
           id="g334"><path
             id="path336"
             style="fill:#080638;fill-opacity:1;fill-rule:nonzero;stroke:none"
             d="m 0,0 c -0.003,0.016 -0.013,0.026 -0.018,0.04 -0.021,0.11 -0.087,0.213 -0.218,0.263 -5.109,1.947 -9.003,5.903 -9.203,11.572 -0.204,5.771 0.556,9.082 2.093,14.624 0.033,0.113 -0.129,0.154 -0.174,0.047 -2.64,-6.265 -3.192,-14.242 -2.498,-17.396 1.035,-4.695 5.014,-7.952 9.399,-9.432 0.329,-1.449 0.555,-2.959 1.005,-4.372 0.052,-0.164 0.305,-0.139 0.305,0.041 C 0.689,-3.08 0.32,-1.491 0,0" /></g><g
           transform="translate(459.3418,411.6992)"
           id="g338"><path
             id="path340"
             style="fill:#080638;fill-opacity:1;fill-rule:nonzero;stroke:none"
             d="m 0,0 22.849,-33.855 7.084,17.272 z" /></g><g
           transform="translate(435.1035,425.7158)"
           id="g342"><path
             id="path344"
             style="fill:#ff9581;fill-opacity:1;fill-rule:nonzero;stroke:none"
             d="m 0,0 c 0,0 -1.956,-4.017 -2.231,-4.98 0,0 2.601,-4.588 9.113,-2.505 6.513,2.082 7.639,15.189 7.639,15.189 0,0 -4.693,1.002 -8.055,-0.566 C 3.104,5.57 0,0 0,0" /></g><g
           transform="translate(440.5469,419.8193)"
           id="g346"><path
             id="path348"
             style="fill:#ff9581;fill-opacity:1;fill-rule:nonzero;stroke:none"
             d="m 0,0 c -2.12,-0.842 -4.592,4.054 -5.443,5.896 -0.185,0.426 -0.296,0.686 -0.296,0.686 l -0.13,0.129 -0.37,0.398 -6.174,6.48 5.452,11.034 0.823,1.527 c 0,0 1.75,-2.092 3.824,-4.629 0.111,-0.129 0.221,-0.259 0.324,-0.388 0.296,-0.352 0.592,-0.713 0.888,-1.083 0.222,-0.269 0.445,-0.546 0.666,-0.842 C -0.204,18.911 0.019,18.615 0.25,18.319 2.48,15.356 4.517,12.126 4.665,11.691 4.998,10.673 4.452,1.768 0,0" /></g><g
           transform="translate(435.1035,425.7158)"
           id="g350"><path
             id="path352"
             style="fill:#080638;fill-opacity:1;fill-rule:nonzero;stroke:none"
             d="m 0,0 c -0.185,0.426 -0.296,0.685 -0.296,0.685 l -0.13,0.129 -0.37,0.398 -6.174,6.48 5.452,11.034 0.824,1.527 c 0,0 1.75,-2.091 3.823,-4.628 C 3.99,12.228 5.396,3.916 0,0" /></g><g
           transform="translate(410.9756,441.5684)"
           id="g354"><path
             id="path356"
             style="fill:#ff9581;fill-opacity:1;fill-rule:nonzero;stroke:none"
             d="m 0,0 c 3.854,-15.383 14.092,-14.194 16.818,-13.977 3.094,0.247 13.164,3.721 10.92,19.419 C 25.494,21.141 17.124,24.211 10.147,22.843 3.171,21.474 -3.854,15.382 0,0" /></g><g
           transform="translate(413.2256,444.6201)"
           id="g358"><path
             id="path360"
             style="fill:#080638;fill-opacity:1;fill-rule:nonzero;stroke:none"
             d="M 0,0 C 0.341,0.157 0.629,0.358 0.949,0.547 1.311,0.761 1.621,0.895 1.811,1.29 1.912,1.502 1.792,1.827 1.596,1.945 1.137,2.219 0.629,2.067 0.184,1.828 -0.301,1.567 -0.607,1.243 -0.817,0.736 -1.021,0.246 -0.448,-0.207 0,0" /></g><g
           transform="translate(423.7637,447.7036)"
           id="g362"><path
             id="path364"
             style="fill:#080638;fill-opacity:1;fill-rule:nonzero;stroke:none"
             d="m 0,0 c -0.367,-0.074 -0.718,-0.082 -1.089,-0.117 -0.418,-0.041 -0.747,-0.116 -1.133,0.092 -0.207,0.111 -0.302,0.443 -0.213,0.654 0.208,0.493 0.708,0.67 1.209,0.739 C -0.681,1.443 -0.242,1.362 0.227,1.077 0.681,0.801 0.484,0.098 0,0" /></g><g
           transform="translate(422.9971,443.2446)"
           id="g366"><path
             id="path368"
             style="fill:#080638;fill-opacity:1;fill-rule:nonzero;stroke:none"
             d="M 0,0 C -0.004,0.042 0.096,-0.024 0.107,-0.067 0.385,-1.111 0.879,-2.26 1.918,-2.322 1.95,-2.324 1.963,-2.376 1.927,-2.382 0.736,-2.564 0.096,-1.033 0,0" /></g><g
           transform="translate(423.5957,444.6025)"
           id="g370"><path
             id="path372"
             style="fill:#080638;fill-opacity:1;fill-rule:nonzero;stroke:none"
             d="M 0,0 C 1.625,0.626 2.758,-2.67 1.253,-3.25 -0.229,-3.821 -1.362,-0.525 0,0" /></g><g
           transform="translate(424.3027,444.6509)"
           id="g374"><path
             id="path376"
             style="fill:#080638;fill-opacity:1;fill-rule:nonzero;stroke:none"
             d="m 0,0 c 0.352,-0.088 0.747,-0.32 1.106,-0.235 0.415,0.098 0.6,0.548 0.748,0.97 C 1.87,0.779 1.908,0.76 1.924,0.716 2.15,0.088 2.13,-0.644 1.485,-0.971 0.897,-1.269 0.262,-0.862 -0.114,-0.281 -0.185,-0.174 -0.142,0.035 0,0" /></g><g
           transform="translate(416.4404,441.5112)"
           id="g378"><path
             id="path380"
             style="fill:#080638;fill-opacity:1;fill-rule:nonzero;stroke:none"
             d="M 0,0 C -0.022,0.036 -0.063,-0.076 -0.047,-0.118 0.344,-1.125 0.622,-2.344 -0.18,-3.006 -0.204,-3.027 -0.184,-3.077 -0.151,-3.061 0.917,-2.506 0.531,-0.891 0,0" /></g><g
           transform="translate(415.1553,442.2544)"
           id="g382"><path
             id="path384"
             style="fill:#080638;fill-opacity:1;fill-rule:nonzero;stroke:none"
             d="M 0,0 C -1.682,-0.453 -0.651,-3.783 0.906,-3.364 2.439,-2.951 1.41,0.379 0,0" /></g><g
           transform="translate(414.5293,441.8203)"
           id="g386"><path
             id="path388"
             style="fill:#080638;fill-opacity:1;fill-rule:nonzero;stroke:none"
             d="m 0,0 c -0.209,-0.258 -0.37,-0.659 -0.678,-0.776 -0.357,-0.137 -0.738,0.14 -1.077,0.413 -0.035,0.029 -0.053,-0.008 -0.041,-0.052 0.18,-0.642 0.595,-1.24 1.244,-1.173 0.593,0.061 0.833,0.734 0.789,1.415 C 0.229,-0.047 0.084,0.104 0,0" /></g><g
           transform="translate(425.1865,435.2383)"
           id="g390"><path
             id="path392"
             style="fill:#080638;fill-opacity:1;fill-rule:nonzero;stroke:none"
             d="m 0,0 c -0.147,-0.33 -0.259,-0.749 -0.611,-0.923 -0.338,-0.168 -0.81,-0.172 -1.18,-0.175 -0.036,0 -0.055,-0.046 -0.022,-0.068 0.413,-0.282 1.056,-0.307 1.49,-0.042 0.423,0.26 0.492,0.742 0.438,1.201 C 0.107,0.057 0.022,0.048 0,0" /></g><g
           transform="translate(419.6758,437.5269)"
           id="g394"><path
             id="path396"
             style="fill:#080638;fill-opacity:1;fill-rule:nonzero;stroke:none"
             d="m 0,0 c 0,0 0.295,-1.601 0.533,-2.323 0.023,-0.068 0.208,-0.042 0.458,0.025 0.013,0 0.021,-0.003 0.029,0.008 1.34,0.223 2.479,1.087 2.91,2.385 C 3.957,0.182 3.841,0.226 3.79,0.159 3.068,-0.854 2.076,-1.383 0.951,-1.776 0.834,-1.593 0.538,0.983 0.421,0.954 0.015,0.857 -0.674,0.332 -1.097,0.041 c -0.71,3.316 -0.882,6.721 -1.64,10.013 -0.03,0.117 -0.204,0.097 -0.204,-0.015 C -3.013,6.458 -2.278,2.623 -1.633,-0.822 -1.556,-1.252 -0.249,-0.218 0,0" /></g><g
           transform="translate(420.542,435.8027)"
           id="g398"><path
             id="path400"
             style="fill:#080638;fill-opacity:1;fill-rule:nonzero;stroke:none"
             d="M 0,0 C 0,0 0.937,-0.836 2.014,-0.984 2.411,-1.04 2.819,-1.01 3.213,-0.812 4.022,-0.409 3.881,0.381 3.584,1.021 3.342,1.548 2.986,1.971 2.986,1.971 2.986,1.971 1.979,0.541 0,0" /></g><g
           transform="translate(422.5557,434.8188)"
           id="g402"><path
             id="path404"
             style="fill:#ff9dc0;fill-opacity:1;fill-rule:nonzero;stroke:none"
             d="M 0,0 C 0.397,-0.056 0.806,-0.026 1.199,0.172 2.009,0.575 1.867,1.365 1.57,2.005 0.672,1.72 -0.107,0.908 0,0" /></g><g
           transform="translate(437.2178,445.1699)"
           id="g406"><path
             id="path408"
             style="fill:#080638;fill-opacity:1;fill-rule:nonzero;stroke:none"
             d="m 0,0 c -1.584,0.045 -3.255,4.149 -3.255,4.149 0,0 -5.894,-0.057 -11.212,3.257 -3.802,2.368 -5.351,5.093 -5.351,5.093 -0.906,-9.109 -7.602,-12.38 -7.602,-12.38 0,0 -2.354,6.669 0.089,11.173 2.444,4.502 7.98,10.155 17.296,7.993 0,0 6.767,-1.337 9.416,-6.227 C 2.03,8.167 2.15,-0.062 0,0" /></g><g
           transform="translate(417.0098,458.6445)"
           id="g410"><path
             id="path412"
             style="fill:#080638;fill-opacity:1;fill-rule:nonzero;stroke:none"
             d="m 0,0 c -0.01,0.056 0.073,0.063 0.086,0.01 0.973,-4.099 4.843,-6.543 8.569,-7.901 3.484,-1.27 6.841,-1.36 10.488,-1.073 0.106,0.008 0.12,-0.14 0.018,-0.163 C 15.458,-9.965 11.193,-9.276 7.729,-7.837 4.267,-6.399 0.645,-3.962 0,0" /></g><g
           transform="translate(436.6836,444.5688)"
           id="g414"><path
             id="path416"
             style="fill:#ff9581;fill-opacity:1;fill-rule:nonzero;stroke:none"
             d="M 0,0 C 0,0 1.659,5.808 4.185,5.373 6.71,4.938 6.589,-2.693 4.416,-4.48 2.243,-6.268 0.549,-4.289 0.549,-4.289 Z" /></g><g
           transform="translate(440.7793,447.7554)"
           id="g418"><path
             id="path420"
             style="fill:#080638;fill-opacity:1;fill-rule:nonzero;stroke:none"
             d="m 0,0 c 0.038,0.018 0.065,-0.036 0.035,-0.062 -1.503,-1.311 -1.864,-3.249 -1.93,-5.152 0.297,0.826 0.883,1.425 1.962,1.105 0.057,-0.017 0.038,-0.103 -0.014,-0.11 -0.769,-0.093 -1.242,-0.396 -1.529,-1.135 -0.203,-0.525 -0.259,-1.119 -0.343,-1.672 -0.028,-0.185 -0.339,-0.199 -0.341,0.002 -10e-4,0.015 0,0.03 0,0.045 C -2.973,-4.765 -2.316,-1.049 0,0" /></g><g
           transform="translate(439.9023,440.7861)"
           id="g422"><path
             id="path424"
             style="fill:#f1f8fe;fill-opacity:1;fill-rule:nonzero;stroke:none"
             d="M 0,0 C 1.565,0.532 2.396,-1.901 0.827,-2.434 -0.739,-2.966 -1.568,-0.533 0,0" /></g><g
           transform="translate(404.3262,415.3745)"
           id="g426"><path
             id="path428"
             style="fill:#ffc800;fill-opacity:1;fill-rule:nonzero;stroke:none"
             d="M 0,0 C 0,9.782 -10.734,17.711 -23.975,17.711 -37.216,17.711 -47.95,9.782 -47.95,0 c 0,-9.782 10.734,-17.712 23.975,-17.712 C -10.734,-17.712 0,-9.782 0,0" /></g><g
           transform="translate(393.4229,427.3018)"
           id="g430"><path
             id="path432"
             style="fill:#ffc800;fill-opacity:1;fill-rule:nonzero;stroke:none"
             d="M 0,0 11.727,2.984 7.397,-6.704 Z" /></g><g
           transform="translate(371.7266,415.3745)"
           id="g434"><path
             id="path436"
             style="fill:#080638;fill-opacity:1;fill-rule:nonzero;stroke:none"
             d="m 0,0 c 0,1.373 -1.113,2.486 -2.486,2.486 -1.373,0 -2.487,-1.113 -2.487,-2.486 0,-1.374 1.114,-2.486 2.487,-2.486 C -1.113,-2.486 0,-1.374 0,0" /></g><g
           transform="translate(382.8379,415.3745)"
           id="g438"><path
             id="path440"
             style="fill:#080638;fill-opacity:1;fill-rule:nonzero;stroke:none"
             d="m 0,0 c 0,1.373 -1.113,2.486 -2.486,2.486 -1.373,0 -2.487,-1.113 -2.487,-2.486 0,-1.374 1.114,-2.486 2.487,-2.486 C -1.113,-2.486 0,-1.374 0,0" /></g><g
           transform="translate(393.9482,415.3745)"
           id="g442"><path
             id="path444"
             style="fill:#080638;fill-opacity:1;fill-rule:nonzero;stroke:none"
             d="m 0,0 c 0,1.373 -1.112,2.486 -2.486,2.486 -1.373,0 -2.486,-1.113 -2.486,-2.486 0,-1.374 1.113,-2.486 2.486,-2.486 C -1.112,-2.486 0,-1.374 0,0" /></g><g
           transform="translate(576.6377,361.708)"
           id="g446"><path
             id="path448"
             style="fill:#080638;fill-opacity:1;fill-rule:nonzero;stroke:none"
             d="m 0,0 v -226.607 c 0,-8.957 -7.248,-16.205 -16.205,-16.205 h -315.648 c -8.957,0 -16.205,7.248 -16.205,16.205 V 0 c 0,8.957 7.248,16.205 16.205,16.205 H -16.205 C -7.248,16.205 0,8.957 0,0" /></g><path
           id="path450"
           style="fill:#ffffff;fill-opacity:1;fill-rule:nonzero;stroke:none"
           d="M 559.06,175.07 H 246.158 V 361.071 H 559.06 Z" /><g
           transform="translate(576.6377,157.1025)"
           id="g452"><path
             id="path454"
             style="fill:#dadafd;fill-opacity:1;fill-rule:nonzero;stroke:none"
             d="m 0,0 v -22.002 c 0,-8.957 -7.248,-16.205 -16.205,-16.205 h -315.648 c -8.957,0 -16.205,7.248 -16.205,16.205 V 0 Z" /></g><g
           transform="translate(476.8359,59.7959)"
           id="g456"><path
             id="path458"
             style="fill:#a9a7db;fill-opacity:1;fill-rule:nonzero;stroke:none"
             d="m 0,0 h -148.455 v 2.461 c 0,5.492 4.453,9.944 9.945,9.944 H -9.943 C -4.452,12.405 0,7.953 0,2.461 Z" /></g><g
           transform="translate(459.1582,72.1914)"
           id="g460"><path
             id="path462"
             style="fill:#dadafd;fill-opacity:1;fill-rule:nonzero;stroke:none"
             d="m 0,0 h -113.1 l 2.874,21.531 0.142,1.015 0.266,2.02 0.132,1.016 0.276,2.02 0.037,0.313 0.096,0.702 0.275,2.02 0.132,1.015 2.011,15.043 H -6.241 l 1.897,-14.189 0.095,-0.683 0.312,-2.352 0.086,-0.684 0.123,-0.872 0.2,-1.479 0.086,-0.684 0.312,-2.361 0.095,-0.674 z" /></g><path
           id="path464"
           style="fill:#45459d;fill-opacity:1;fill-rule:nonzero;stroke:none"
           d="M 559.06,351.011 H 246.158 v 10.061 H 559.06 Z" /><path
           id="path466"
           style="fill:#dadafd;fill-opacity:1;fill-rule:nonzero;stroke:none"
           d="m 349.924,260.433 h -84.542 v 60.721 h 84.542 z" /><g
           transform="translate(342.6235,289.4419)"
           id="g468"><path
             id="path470"
             style="fill:#ffffff;fill-opacity:1;fill-rule:nonzero;stroke:none"
             d="m 0,0 c 0,-9.493 -7.692,-17.185 -17.185,-17.185 -5.635,0 -10.633,2.717 -13.775,6.898 h 7.48 V 1.878 h -10.79 c 0.94,8.61 8.23,15.318 17.085,15.318 C -7.692,17.196 0,9.493 0,0" /></g><g
           transform="translate(311.6636,279.1553)"
           id="g472"><path
             id="path474"
             style="fill:#ffffff;fill-opacity:1;fill-rule:nonzero;stroke:none"
             d="M 0,0 H -36.685 V 12.165 H -3.31 C -3.376,11.55 -3.41,10.924 -3.41,10.287 -3.41,6.44 -2.135,2.874 0,0" /></g><path
           id="path476"
           style="fill:none;stroke:#dadafd;stroke-width:1;stroke-linecap:butt;stroke-linejoin:miter;stroke-miterlimit:10;stroke-dasharray:none;stroke-opacity:1"
           d="M 538.694,192.258 H 361.13 v 57.839 h 177.564 z" /><g
           transform="translate(361.1304,250.0972)"
           id="g478"><path
             id="path480"
             style="fill:none;stroke:#dadafd;stroke-width:1;stroke-linecap:butt;stroke-linejoin:miter;stroke-miterlimit:10;stroke-dasharray:none;stroke-opacity:1"
             d="M 0,0 177.564,-57.839" /></g><g
           transform="translate(538.6943,250.0972)"
           id="g482"><path
             id="path484"
             style="fill:none;stroke:#dadafd;stroke-width:1;stroke-linecap:butt;stroke-linejoin:miter;stroke-miterlimit:10;stroke-dasharray:none;stroke-opacity:1"
             d="M 0,0 -177.564,-57.839" /></g><path
           id="path486"
           style="fill:#a9a7db;fill-opacity:1;fill-rule:nonzero;stroke:none"
           d="M 442.945,318.178 H 361.13 v 2.975 h 81.815 z" /><path
           id="path488"
           style="fill:#a9a7db;fill-opacity:1;fill-rule:nonzero;stroke:none"
           d="M 442.945,311.147 H 361.13 v 2.975 h 81.815 z" /><path
           id="path490"
           style="fill:#a9a7db;fill-opacity:1;fill-rule:nonzero;stroke:none"
           d="M 442.945,304.116 H 361.13 v 2.975 h 81.815 z" /><path
           id="path492"
           style="fill:#a9a7db;fill-opacity:1;fill-rule:nonzero;stroke:none"
           d="M 442.945,297.085 H 361.13 v 2.975 h 81.815 z" /><path
           id="path494"
           style="fill:#a9a7db;fill-opacity:1;fill-rule:nonzero;stroke:none"
           d="m 408.635,290.054 h -47.504 v 2.975 h 47.504 z" /><path
           id="path496"
           style="fill:#a9a7db;fill-opacity:1;fill-rule:nonzero;stroke:none"
           d="M 442.945,283.022 H 361.13 v 2.975 h 81.815 z" /><path
           id="path498"
           style="fill:#a9a7db;fill-opacity:1;fill-rule:nonzero;stroke:none"
           d="M 442.945,275.991 H 361.13 v 2.975 h 81.815 z" /><path
           id="path500"
           style="fill:#a9a7db;fill-opacity:1;fill-rule:nonzero;stroke:none"
           d="M 442.945,268.96 H 361.13 v 2.975 h 81.815 z" /><path
           id="path502"
           style="fill:#a9a7db;fill-opacity:1;fill-rule:nonzero;stroke:none"
           d="M 422.963,261.929 H 361.13 v 2.975 h 61.833 z" /><path
           id="path504"
           style="fill:#00c7b5;fill-opacity:1;fill-rule:nonzero;stroke:none"
           d="m 349.924,192.258 h -84.446 v 57.839 h 84.446 z" /><path
           id="path506"
           style="fill:#ffffff;fill-opacity:1;fill-rule:nonzero;stroke:none"
           d="m 277.801,197.366 h -5.108 v -5.108 h 5.108 z" /><path
           id="path508"
           style="fill:#ff9dc0;fill-opacity:1;fill-rule:nonzero;stroke:none"
           d="m 288.619,211.993 h -5.108 v -19.735 h 5.108 z" /><path
           id="path510"
           style="fill:#45459d;fill-opacity:1;fill-rule:nonzero;stroke:none"
           d="m 299.437,221.178 h -5.109 v -28.92 h 5.109 z" /><path
           id="path512"
           style="fill:#ffc800;fill-opacity:1;fill-rule:nonzero;stroke:none"
           d="m 310.255,234.448 h -5.108 v -42.19 h 5.108 z" /><path
           id="path514"
           style="fill:#fb6a55;fill-opacity:1;fill-rule:nonzero;stroke:none"
           d="m 321.073,244.846 h -5.109 v -52.588 h 5.109 z" /><path
           id="path516"
           style="fill:#ffffff;fill-opacity:1;fill-rule:nonzero;stroke:none"
           d="m 331.891,205.631 h -5.108 v -13.373 h 5.108 z" /><path
           id="path518"
           style="fill:#ff9dc0;fill-opacity:1;fill-rule:nonzero;stroke:none"
           d="M 342.709,222.753 H 337.6 v -30.495 h 5.109 z" /><g
           transform="translate(537.6963,255.8345)"
           id="g520"><path
             id="path522"
             style="fill:#ffc800;fill-opacity:1;fill-rule:nonzero;stroke:none"
             d="M 0,0 -83.538,11.346 -73.871,71.413 9.666,60.067 Z" /></g><g
           transform="translate(531.084,263.7681)"
           id="g524"><path
             id="path526"
             style="fill:#ff9dc0;fill-opacity:1;fill-rule:nonzero;stroke:none"
             d="M 0,0 -29.377,3.99 -8.488,44.458 Z" /></g><g
           transform="translate(497.1484,276.9111)"
           id="g528"><path
             id="path530"
             style="fill:#ff9dc0;fill-opacity:1;fill-rule:nonzero;stroke:none"
             d="m 0,0 -29.377,3.99 18.4,22.295 z" /></g><g
           transform="translate(254.1538,356.0415)"
           id="g532"><path
             id="path534"
             style="fill:#ff9dc0;fill-opacity:1;fill-rule:nonzero;stroke:none"
             d="m 0,0 c 0,-1.378 -1.117,-2.495 -2.495,-2.495 -1.378,0 -2.495,1.117 -2.495,2.495 0,1.378 1.117,2.495 2.495,2.495 C -1.117,2.495 0,1.378 0,0" /></g><g
           transform="translate(264.3423,356.0415)"
           id="g536"><path
             id="path538"
             style="fill:#ffffff;fill-opacity:1;fill-rule:nonzero;stroke:none"
             d="m 0,0 c 0,-1.378 -1.117,-2.495 -2.495,-2.495 -1.378,0 -2.495,1.117 -2.495,2.495 0,1.378 1.117,2.495 2.495,2.495 C -1.117,2.495 0,1.378 0,0" /></g><g
           transform="translate(274.5303,356.0415)"
           id="g540"><path
             id="path542"
             style="fill:#ffc800;fill-opacity:1;fill-rule:nonzero;stroke:none"
             d="m 0,0 c 0,-1.378 -1.117,-2.495 -2.495,-2.495 -1.378,0 -2.495,1.117 -2.495,2.495 0,1.378 1.117,2.495 2.495,2.495 C -1.117,2.495 0,1.378 0,0" /></g><path
           id="path544"
           style="fill:#dadafd;fill-opacity:1;fill-rule:nonzero;stroke:none"
           d="M 538.694,330.819 H 426.225 v 10.036 h 112.469 z" /><path
           id="path546"
           style="fill:#00c7b5;fill-opacity:1;fill-rule:nonzero;stroke:none"
           d="m 265.382,340.855 h 10.036 v -10.036 h -10.036 z" /><path
           id="path548"
           style="fill:#ffc800;fill-opacity:1;fill-rule:nonzero;stroke:none"
           d="m 279.135,340.855 h 10.036 v -10.036 h -10.036 z" /><path
           id="path550"
           style="fill:#ff9dc0;fill-opacity:1;fill-rule:nonzero;stroke:none"
           d="m 292.889,340.855 h 10.036 v -10.036 h -10.036 z" /><path
           id="path552"
           style="fill:#dadafd;fill-opacity:1;fill-rule:nonzero;stroke:none"
           d="M 320.804,340.855 H 369.88 V 330.819 H 320.804 Z" /><g
           transform="translate(408.8066,140.5674)"
           id="g554"><path
             id="path556"
             style="fill:#a9a7db;fill-opacity:1;fill-rule:nonzero;stroke:none"
             d="m 0,0 c 0,-3.485 -2.825,-6.311 -6.31,-6.311 -3.485,0 -6.31,2.826 -6.31,6.311 0,3.484 2.825,6.311 6.31,6.311 C -2.825,6.311 0,3.484 0,0" /></g><g
           transform="translate(455.4307,100.1064)"
           id="g558"><path
             id="path560"
             style="fill:#080638;fill-opacity:1;fill-rule:nonzero;stroke:none"
             d="m 0,0 h -105.645 l 0.095,0.702 0.275,2.02 0.133,1.015 2.011,15.043 H -2.514 L -0.616,4.591 -0.521,3.908 -0.209,1.556 -0.123,0.872 Z" /></g><g
           transform="translate(392.626,380.3716)"
           id="g562"><path
             id="path564"
             style="fill:#ff9581;fill-opacity:1;fill-rule:nonzero;stroke:none"
             d="m 0,0 c -3.521,0.908 -8.271,3.99 -10.968,3.797 -2.434,-0.174 -2.888,-2.311 -2.888,-2.311 0,0 -1.82,2.376 -4.237,1.797 -1.244,-0.297 -1.862,-2.546 -1.862,-2.546 0,0 -1.541,1.84 -3.659,1.194 -1.688,-0.515 -2.054,-2.692 -2.054,-2.692 0,0 -2.301,1.076 -3.852,0 -3.145,-2.182 -0.273,-17.055 5.649,-18.295 2.761,-0.577 1.862,3.017 1.862,3.017 0,0 2.541,-4.857 5.622,-4.343 3.081,0.513 1.631,5.114 1.631,5.114 0,0 2.504,-4.686 5.645,-3.831 3.27,0.89 1.032,5.243 1.032,5.243 0,0 2.881,-2.874 5.135,-1.669 3.723,1.99 -3.145,9.179 -3.001,12.598 h 5.993 z" /></g><g
           transform="translate(387.3643,382.4478)"
           id="g566"><path
             id="path568"
             style="fill:#ff9581;fill-opacity:1;fill-rule:nonzero;stroke:none"
             d="M 0,0 C 3.409,-0.569 6.576,4.129 9.914,4.053 14.43,3.951 11.006,-3.671 4.778,-5.003 H 0 Z" /></g><g
           transform="translate(366.8501,379.2754)"
           id="g570"><path
             id="path572"
             style="fill:#080638;fill-opacity:1;fill-rule:nonzero;stroke:none"
             d="m 0,0 c -0.006,0.05 -0.077,0.052 -0.08,0 -0.247,-5.123 1.051,-10.826 3.872,-15.145 0.093,-0.142 0.363,-0.053 0.291,0.123 C 2.026,-10.015 0.601,-5.407 0,0" /></g><g
           transform="translate(372.6255,381.1748)"
           id="g574"><path
             id="path576"
             style="fill:#080638;fill-opacity:1;fill-rule:nonzero;stroke:none"
             d="m 0,0 c -0.006,0.059 -0.104,0.049 -0.106,-0.014 -0.227,-5.279 1.413,-11.664 5.25,-16.259 0.132,-0.158 0.408,-0.167 0.271,0.026 C 3.094,-12.998 0.516,-4.869 0,0" /></g><g
           transform="translate(384.9316,366.2681)"
           id="g578"><path
             id="path580"
             style="fill:#080638;fill-opacity:1;fill-rule:nonzero;stroke:none"
             d="m 0,0 c -3.51,4.549 -5.208,9.765 -6.183,15.374 -0.012,0.072 -0.114,0.047 -0.121,-0.017 -0.27,-2.873 0.724,-6.383 1.728,-9.049 0.962,-2.554 2.343,-4.664 4.417,-6.431 C -0.078,-0.191 0.075,-0.097 0,0" /></g><g
           transform="translate(452.916,431.3437)"
           id="g582"><path
             id="path584"
             style="fill:#ff9581;fill-opacity:1;fill-rule:nonzero;stroke:none"
             d="m 0,0 c 8.103,0.385 37.31,-13.921 51.895,-30.47 10.265,-11.648 -5.436,-62.905 -8.809,-63.831 -3.373,-0.925 -19.15,2.661 -21.654,5.438 -2.505,2.777 12.573,45.049 11.416,47.594 C 31.69,-38.724 15.205,-27.424 5.092,-16.545 -0.734,-10.278 -5.708,-0.271 0,0" /></g><g
           transform="translate(475.8437,353.1768)"
           id="g586"><path
             id="path588"
             style="fill:#ff9581;fill-opacity:1;fill-rule:nonzero;stroke:none"
             d="m 0,0 c -0.575,-2.313 -5.595,-17.87 -5.7,-22.036 -0.106,-4.165 1.793,-15.505 4.975,-15.91 3.182,-0.405 3.297,3.125 3.297,3.125 0,0 1.042,-5.033 4.282,-5.149 3.24,-0.116 3.24,5.38 3.24,5.38 0,0 1.446,-5.091 4.686,-4.975 3.24,0.115 2.314,5.642 2.314,5.642 0,0 2.307,-4.528 4.936,-3.309 3.163,1.465 -1.002,12.535 -1.118,13.576 -0.115,1.042 4.839,7.979 2.824,14.403 l 2.411,7.244 z" /></g><g
           transform="translate(492.9355,319.5005)"
           id="g590"><path
             id="path592"
             style="fill:#080638;fill-opacity:1;fill-rule:nonzero;stroke:none"
             d="m 0,0 c -2.62,6.068 -2.718,9.175 -1.711,15.604 0.02,0.125 -0.162,0.183 -0.195,0.053 C -3.465,9.453 -3.905,5.537 -0.287,-0.143 -0.11,-0.42 0.125,-0.289 0,0" /></g><g
           transform="translate(486.1113,318.3555)"
           id="g594"><path
             id="path596"
             style="fill:#080638;fill-opacity:1;fill-rule:nonzero;stroke:none"
             d="m 0,0 c -2.172,6.54 -2.307,9.91 -1.747,16.72 0.008,0.096 -0.154,0.12 -0.171,0.023 C -3.025,10.108 -3.376,6.191 -0.348,-0.058 -0.211,-0.341 0.099,-0.299 0,0" /></g><g
           transform="translate(478.4453,318.4419)"
           id="g598"><path
             id="path600"
             style="fill:#080638;fill-opacity:1;fill-rule:nonzero;stroke:none"
             d="m 0,0 c -1.646,6.483 -1.952,10.172 -0.561,16.714 0.033,0.154 -0.189,0.217 -0.237,0.065 C -2.866,10.247 -2.517,5.641 -0.202,-0.029 -0.045,-0.416 0.104,-0.408 0,0" /></g><g
           transform="translate(451.8359,422.6592)"
           id="g602"><path
             id="path604"
             style="fill:#00c7b5;fill-opacity:1;fill-rule:nonzero;stroke:none"
             d="m 0,0 c 7.521,-13.993 32.308,-30.309 32.771,-32.276 0.462,-1.967 -9.951,-24.624 -10.298,-29.188 -0.347,-4.564 1.987,-6.288 1.987,-6.288 l 25.83,-2.965 c 0,0 3.887,-0.69 6.896,6.425 3.007,7.114 3.124,33.173 -1.968,40.694 C 50.127,-16.077 33.176,0.36 5.438,8.685 -1.504,10.768 -4.676,8.7 0,0" /></g><g
           transform="translate(476.2959,354.9067)"
           id="g606"><path
             id="path608"
             style="fill:#00c7b5;fill-opacity:1;fill-rule:nonzero;stroke:none"
             d="m 0,0 26.361,-2.982 c 0,0 -1.928,-6.899 -2.006,-6.976 C 24.278,-10.035 -1.794,-6.95 -2.18,-6.564 -2.565,-6.178 0,0 0,0" /></g><g
           transform="translate(502.0977,352.084)"
           id="g610"><path
             id="path612"
             style="fill:#080638;fill-opacity:1;fill-rule:nonzero;stroke:none"
             d="M 0,0 C -3.987,0.598 -20.933,3.22 -25.352,3.017 -25.508,3.01 -25.557,2.769 -25.39,2.732 -21.301,1.829 -4.531,-0.16 -0.042,-0.302 0.293,-0.312 0.335,-0.05 0,0" /></g><g
           transform="translate(451.7305,430.54)"
           id="g614"><path
             id="path616"
             style="fill:#080638;fill-opacity:1;fill-rule:nonzero;stroke:none"
             d="m 0,0 c -1.078,-4.736 -2.191,-10.614 -6.253,-13.439 -4.213,-2.931 -9.611,-2.183 -13.345,1.306 -0.042,0.039 -0.099,-0.022 -0.061,-0.068 3.324,-3.998 8.471,-5.209 12.939,-2.655 4.798,2.742 6.349,9.38 7.013,14.813 C 0.315,0.14 0.039,0.174 0,0" /></g><g
           transform="translate(298.4341,44.1416)"
           id="g618"><path
             id="path620"
             style="fill:#fb6a55;fill-opacity:1;fill-rule:nonzero;stroke:none"
             d="m 0,0 c -2.286,-0.757 -67.645,-0.567 -70.133,1.015 -0.947,0.594 -1.474,10.115 -1.785,21.637 -0.067,2.489 -0.122,5.058 -0.162,7.668 -0.284,16.945 -0.19,34.931 -0.19,34.931 h 43.722 l -1.014,-34.931 -0.217,-7.668 c 0,0 24.991,-11.265 27.534,-13.294 C 0.284,7.33 2.285,0.758 0,0" /></g><g
           transform="translate(298.4341,44.1416)"
           id="g622"><path
             id="path624"
             style="fill:#ffffff;fill-opacity:1;fill-rule:nonzero;stroke:none"
             d="m 0,0 c -2.286,-0.757 -67.645,-0.567 -70.133,1.015 -1.149,0.73 -1.69,14.631 -1.947,29.305 h 42.518 l -0.217,-7.668 c 0,0 24.991,-11.265 27.534,-13.294 C 0.284,7.33 2.285,0.758 0,0" /></g><g
           transform="translate(298.4341,44.1416)"
           id="g626"><path
             id="path628"
             style="fill:#ff9dc0;fill-opacity:1;fill-rule:nonzero;stroke:none"
             d="m 0,0 c -2.286,-0.757 -67.645,-0.567 -70.133,1.015 -0.947,0.594 -1.474,10.115 -1.785,21.637 h 42.139 c 0,0 24.991,-11.265 27.534,-13.294 C 0.284,7.33 2.285,0.758 0,0" /></g><g
           transform="translate(297.5044,46.7588)"
           id="g630"><path
             id="path632"
             style="fill:#080638;fill-opacity:1;fill-rule:nonzero;stroke:none"
             d="m 0,0 c -10.956,0.301 -55.17,0.479 -66.023,-0.056 -0.088,-0.004 -0.088,-0.064 0,-0.068 C -55.171,-0.659 -10.956,-0.48 0,-0.18 0.231,-0.173 0.231,-0.006 0,0" /></g><g
           transform="translate(291.9922,55.8633)"
           id="g634"><path
             id="path636"
             style="fill:#080638;fill-opacity:1;fill-rule:nonzero;stroke:none"
             d="m 0,0 c -2.598,0.113 -5.141,-1.113 -6.562,-2.656 -1.366,-1.484 -2.536,-3.571 -2.466,-5.843 0.002,-0.065 0.123,-0.067 0.133,0 0.638,4.286 4.549,8.04 8.895,8.362 0.087,0.006 0.089,0.133 0,0.137" /></g><g
           transform="translate(272.9019,65.6914)"
           id="g638"><path
             id="path640"
             style="fill:#080638;fill-opacity:1;fill-rule:nonzero;stroke:none"
             d="m 0,0 c -4.385,0.073 -9.474,-1.459 -12.209,-5.038 -0.106,-0.139 0.092,-0.287 0.223,-0.221 3.97,2.032 7.743,3.544 12.06,4.719 C 0.378,-0.457 0.314,-0.005 0,0" /></g><g
           transform="translate(276.2832,64.3623)"
           id="g642"><path
             id="path644"
             style="fill:#080638;fill-opacity:1;fill-rule:nonzero;stroke:none"
             d="m 0,0 c -4.385,0.073 -9.474,-1.46 -12.209,-5.038 -0.106,-0.139 0.093,-0.287 0.223,-0.221 3.97,2.032 7.743,3.544 12.06,4.719 C 0.378,-0.457 0.314,-0.006 0,0" /></g><g
           transform="translate(279.6646,63.0322)"
           id="g646"><path
             id="path648"
             style="fill:#080638;fill-opacity:1;fill-rule:nonzero;stroke:none"
             d="m 0,0 c -4.385,0.074 -9.474,-1.459 -12.209,-5.038 -0.106,-0.139 0.093,-0.287 0.223,-0.221 3.97,2.032 7.743,3.544 12.06,4.719 C 0.378,-0.457 0.314,-0.005 0,0" /></g><g
           transform="translate(283.0464,61.7031)"
           id="g650"><path
             id="path652"
             style="fill:#080638;fill-opacity:1;fill-rule:nonzero;stroke:none"
             d="m 0,0 c -4.385,0.073 -9.474,-1.46 -12.209,-5.038 -0.106,-0.139 0.092,-0.287 0.223,-0.221 3.97,2.032 7.742,3.544 12.06,4.719 C 0.378,-0.457 0.314,-0.006 0,0" /></g><g
           transform="translate(234.3022,57.1016)"
           id="g654"><path
             id="path656"
             style="fill:#080638;fill-opacity:1;fill-rule:nonzero;stroke:none"
             d="M 0,0 C -4.92,0 -4.928,-7.646 0,-7.646 4.92,-7.646 4.929,0 0,0" /></g><g
           transform="translate(272.2676,68.0752)"
           id="g658"><path
             id="path660"
             style="fill:#080638;fill-opacity:1;fill-rule:nonzero;stroke:none"
             d="m 0,0 c -1.513,-1.096 -3.07,-2.109 -4.542,-3.261 0.789,2.184 1.48,4.389 2.489,6.491 0.482,1.003 0.996,2.024 1.611,2.954 C 0.515,7.63 4.83,11.282 5.252,6.51 5.485,3.879 1.803,1.305 0,0 M 5.407,9.305 C 3.193,11.151 0.391,9.36 -0.983,7.453 -3.208,4.364 -4.745,0.03 -5,-3.749 c -0.006,-0.093 0.064,-0.131 0.136,-0.126 0.093,-0.314 0.464,-0.579 0.788,-0.355 3.128,2.15 6.74,4.061 9.115,7.108 1.386,1.778 2.462,4.679 0.368,6.427" /></g><g
           transform="translate(253.7271,65.2354)"
           id="g662"><path
             id="path664"
             style="fill:#080638;fill-opacity:1;fill-rule:nonzero;stroke:none"
             d="M 0,0 C -2.956,3.771 2.69,4.058 4.377,3.657 5.461,3.4 6.535,3.007 7.572,2.604 9.746,1.762 11.759,0.625 13.828,-0.427 11.967,-0.595 10.137,-0.92 8.285,-1.156 6.076,-1.437 1.63,-2.078 0,0 m 2.641,-2.503 c 3.816,-0.598 7.757,0.478 11.511,1.049 0.389,0.059 0.478,0.506 0.33,0.799 0.056,0.046 0.082,0.121 0.014,0.184 C 11.725,2.111 7.64,4.223 3.903,4.954 1.596,5.405 -1.672,4.795 -2.024,1.933 -2.357,-0.774 0.413,-2.154 2.641,-2.503" /></g><g
           transform="translate(122.8599,64.4414)"
           id="g666"><path
             id="path668"
             style="fill:#fb6a55;fill-opacity:1;fill-rule:nonzero;stroke:none"
             d="m 0,0 c -1.96,1.397 -40.403,54.256 -40.595,57.198 -0.079,1.116 7.293,7.163 16.408,14.218 1.968,1.524 4.01,3.085 6.092,4.659 13.508,10.236 28.079,20.78 28.079,20.78 L 35.802,61.57 7.012,41.762 0.696,37.409 c 0,0 5.667,-26.821 5.531,-30.071 C 6.083,4.1 1.961,-1.396 0,0" /></g><g
           transform="translate(122.8599,64.4414)"
           id="g670"><path
             id="path672"
             style="fill:#ffffff;fill-opacity:1;fill-rule:nonzero;stroke:none"
             d="m 0,0 c -1.96,1.397 -40.403,54.256 -40.595,57.198 -0.09,1.36 10.81,10.005 22.5,18.877 L 7.012,41.762 0.696,37.409 c 0,0 5.667,-26.821 5.531,-30.071 C 6.083,4.1 1.961,-1.396 0,0" /></g><g
           transform="translate(122.8599,64.4414)"
           id="g674"><path
             id="path676"
             style="fill:#ff9dc0;fill-opacity:1;fill-rule:nonzero;stroke:none"
             d="m 0,0 c -1.96,1.397 -40.403,54.256 -40.595,57.198 -0.079,1.116 7.293,7.163 16.408,14.218 L 0.696,37.409 c 0,0 5.667,-26.821 5.531,-30.071 C 6.083,4.1 1.961,-1.396 0,0" /></g><g
           transform="translate(124.4233,66.7373)"
           id="g678"><path
             id="path680"
             style="fill:#080638;fill-opacity:1;fill-rule:nonzero;stroke:none"
             d="m 0,0 c -6.227,9.02 -32.191,44.808 -39.032,53.25 -0.055,0.068 -0.104,0.033 -0.055,-0.041 5.976,-9.073 32.23,-44.65 38.942,-53.314 C -0.004,-0.288 0.131,-0.19 0,0" /></g><g
           transform="translate(128.5156,76.5625)"
           id="g682"><path
             id="path684"
             style="fill:#080638;fill-opacity:1;fill-rule:nonzero;stroke:none"
             d="m 0,0 c -1.442,2.163 -3.934,3.491 -6.019,3.727 -2.002,0.226 -4.378,-0.062 -6.17,-1.46 -0.052,-0.04 0.018,-0.139 0.078,-0.107 3.835,2.016 9.174,1.076 12,-2.241 C -0.054,-0.148 0.05,-0.074 0,0" /></g><g
           transform="translate(125.1743,97.7725)"
           id="g686"><path
             id="path688"
             style="fill:#080638;fill-opacity:1;fill-rule:nonzero;stroke:none"
             d="M 0,0 C -2.53,3.582 -6.772,6.784 -11.275,6.878 -11.45,6.882 -11.453,6.634 -11.322,6.568 -7.337,4.563 -3.889,2.412 -0.392,-0.379 -0.146,-0.575 0.181,-0.257 0,0" /></g><g
           transform="translate(126.0981,94.2588)"
           id="g690"><path
             id="path692"
             style="fill:#080638;fill-opacity:1;fill-rule:nonzero;stroke:none"
             d="M 0,0 C -2.53,3.582 -6.772,6.783 -11.275,6.878 -11.45,6.882 -11.453,6.634 -11.322,6.567 -7.337,4.563 -3.89,2.411 -0.392,-0.379 -0.146,-0.575 0.181,-0.257 0,0" /></g><g
           transform="translate(127.022,90.7441)"
           id="g694"><path
             id="path696"
             style="fill:#080638;fill-opacity:1;fill-rule:nonzero;stroke:none"
             d="M 0,0 C -2.53,3.583 -6.772,6.784 -11.275,6.878 -11.45,6.882 -11.453,6.634 -11.322,6.568 -7.337,4.564 -3.89,2.412 -0.392,-0.379 -0.146,-0.575 0.181,-0.257 0,0" /></g><g
           transform="translate(127.9458,87.2305)"
           id="g698"><path
             id="path700"
             style="fill:#080638;fill-opacity:1;fill-rule:nonzero;stroke:none"
             d="M 0,0 C -2.53,3.582 -6.772,6.783 -11.275,6.878 -11.45,6.882 -11.453,6.634 -11.322,6.567 -7.337,4.563 -3.89,2.412 -0.392,-0.379 -0.146,-0.575 0.181,-0.257 0,0" /></g><g
           transform="translate(95.4492,123.8506)"
           id="g702"><path
             id="path704"
             style="fill:#080638;fill-opacity:1;fill-rule:nonzero;stroke:none"
             d="M 0,0 C -2.905,3.971 -9.081,-0.537 -6.171,-4.515 -3.266,-8.485 2.91,-3.977 0,0" /></g><g
           transform="translate(126.7231,99.6914)"
           id="g706"><path
             id="path708"
             style="fill:#080638;fill-opacity:1;fill-rule:nonzero;stroke:none"
             d="M 0,0 C -1.777,0.574 -3.515,1.232 -5.313,1.741 -3.085,2.393 -0.897,3.138 1.396,3.564 2.489,3.768 3.617,3.956 4.73,4.009 6.462,4.09 11.958,2.765 8.355,-0.395 6.37,-2.136 2.119,-0.685 0,0 M 10.702,1.131 C 10.885,4.009 7.786,5.212 5.435,5.195 1.628,5.167 -2.776,3.848 -5.978,1.822 -6.057,1.772 -6.045,1.692 -5.999,1.638 -6.198,1.377 -6.192,0.922 -5.821,0.792 c 3.583,-1.255 7.258,-3.041 11.119,-3.158 2.254,-0.07 5.231,0.775 5.404,3.497" /></g><g
           transform="translate(113.4839,112.9775)"
           id="g710"><path
             id="path712"
             style="fill:#080638;fill-opacity:1;fill-rule:nonzero;stroke:none"
             d="M 0,0 C 1.297,4.612 4.863,0.226 5.536,-1.373 5.969,-2.399 6.285,-3.498 6.573,-4.572 7.176,-6.825 7.448,-9.12 7.82,-11.412 6.586,-10.009 5.243,-8.725 3.958,-7.368 2.428,-5.752 -0.715,-2.542 0,0 m -0.461,-3.608 c 1.771,-3.434 4.967,-5.98 7.644,-8.671 0.277,-0.28 0.691,-0.088 0.839,0.205 0.071,-0.019 0.147,0.005 0.158,0.097 0.447,3.762 -0.261,8.305 -1.878,11.752 -0.998,2.128 -3.42,4.406 -5.938,3 -2.381,-1.33 -1.859,-4.379 -0.825,-6.383" /></g><g
           transform="translate(270.6753,79.3281)"
           id="g714"><path
             id="path716"
             style="fill:#45459d;fill-opacity:1;fill-rule:nonzero;stroke:none"
             d="m 0,0 h -46.079 c 0,0 0.468,33.762 -0.009,61.151 -0.019,0.954 -0.029,1.899 -0.048,2.844 -0.038,1.899 -0.067,3.777 -0.105,5.619 v 0.01 c -0.019,0.944 -0.038,1.869 -0.057,2.785 -0.038,1.928 -0.076,3.797 -0.124,5.601 0,0.266 -0.01,0.544 -0.019,0.81 -0.01,0.688 -0.029,1.365 -0.038,2.023 -0.048,1.946 -0.096,3.798 -0.153,5.534 -0.019,0.953 -0.048,1.869 -0.076,2.747 -0.124,4.121 -0.258,7.375 -0.401,9.388 -0.591,8.557 -7.556,46.929 -13.328,77.801 -0.019,0.039 -0.019,0.086 -0.028,0.134 -0.096,0.468 -0.181,0.945 -0.267,1.412 -0.01,0.038 -0.019,0.086 -0.029,0.134 -0.086,0.458 -0.172,0.916 -0.248,1.364 -0.01,0.019 -0.01,0.038 -0.01,0.048 -0.009,0.047 -0.019,0.095 -0.028,0.133 -0.086,0.477 -0.172,0.945 -0.267,1.403 0,0.047 -0.01,0.095 -0.019,0.133 -3.816,20.341 -6.908,36.321 -6.908,36.321 h 48.628 c 0,0 15.026,-101.568 17.067,-118.416 C -0.504,82.141 0,0 0,0" /></g><g
           transform="translate(268.4521,87.6143)"
           id="g718"><path
             id="path720"
             style="fill:#080638;fill-opacity:1;fill-rule:nonzero;stroke:none"
             d="m 0,0 c -7.19,0.15 -5.125,0.208 -12.316,0.277 -3.519,0.035 -26.644,0.236 -29.933,-0.308 -0.072,-0.013 -0.072,-0.135 0,-0.147 3.289,-0.545 26.414,-0.343 29.933,-0.309 C -5.125,-0.418 -7.19,-0.359 0,-0.21 0.135,-0.207 0.135,-0.003 0,0" /></g><g
           transform="translate(242.7236,257.1538)"
           id="g722"><path
             id="path724"
             style="fill:#080638;fill-opacity:1;fill-rule:nonzero;stroke:none"
             d="m 0,0 -18.489,-99.005 c -0.01,0.687 -0.029,1.364 -0.038,2.022 -0.048,1.946 -0.096,3.798 -0.153,5.534 -0.019,0.953 -0.048,1.869 -0.076,2.747 -0.124,4.121 -0.258,7.375 -0.401,9.388 -0.592,8.558 -7.556,46.93 -13.328,77.802 -0.019,0.038 -0.019,0.086 -0.029,0.134 -0.095,0.467 -0.181,0.944 -0.267,1.412 -0.01,0.038 -0.019,0.085 -0.029,0.133 -0.086,0.458 -0.171,0.916 -0.248,1.364 z" /></g><g
           transform="translate(251.5137,296.7187)"
           id="g726"><path
             id="path728"
             style="fill:#45459d;fill-opacity:1;fill-rule:nonzero;stroke:none"
             d="m 0,0 c 0.786,-24.062 -8.837,-32.525 -8.837,-32.525 0,0 -20.205,-68.635 -31.434,-89.392 -11.23,-20.757 -76.405,-68.84 -76.405,-68.84 l -29.609,38.62 c 0,0 59.064,35.888 64.168,44.565 2.838,4.825 24.875,61.063 23.992,66.328 C -62.339,-16.133 -54.052,0 -54.052,0 Z" /></g><g
           transform="translate(239.541,257.1172)"
           id="g730"><path
             id="path732"
             style="fill:#080638;fill-opacity:1;fill-rule:nonzero;stroke:none"
             d="m 0,0 c -2.791,-11.222 -3.848,-15.503 -7.586,-26.442 -3.729,-10.912 -7.971,-21.674 -11.31,-32.713 -0.028,-0.092 0.12,-0.159 0.159,-0.068 4.47,10.489 8.236,21.325 11.96,32.097 3.824,11.062 4.972,15.49 7.544,26.915 C 0.879,0.286 0.124,0.499 0,0" /></g><g
           transform="translate(247.8164,261.8818)"
           id="g734"><path
             id="path736"
             style="fill:#080638;fill-opacity:1;fill-rule:nonzero;stroke:none"
             d="m 0,0 c -4.571,-2.13 -8.904,-4.928 -13.025,-7.817 -0.162,-0.113 -0.02,-0.368 0.157,-0.268 4.405,2.465 8.91,4.855 13.175,7.56 C 0.642,-0.312 0.351,0.163 0,0" /></g><g
           transform="translate(244.8325,295.2886)"
           id="g738"><path
             id="path740"
             style="fill:#080638;fill-opacity:1;fill-rule:nonzero;stroke:none"
             d="m 0,0 c -0.029,0.158 -0.313,0.164 -0.293,-0.008 0.612,-5.473 0.769,-10.329 0.845,-15.496 0.035,-2.399 -0.497,-15.732 -4.718,-15.207 -0.707,0.087 -1.13,0.73 -1.348,1.758 -0.261,1.237 0.048,2.82 0.124,4.085 0.169,2.797 0.246,5.594 0.191,8.396 -0.104,5.23 -0.627,10.416 -1.8,15.518 -0.038,0.167 -0.282,0.129 -0.264,-0.043 0.76,-7.175 1.325,-14.358 0.998,-21.578 -0.156,-3.47 -1.337,-8.794 2.291,-8.944 3.696,-0.153 5.144,8.708 5.341,11.111 C 1.915,-13.702 1.219,-6.598 0,0" /></g><g
           transform="translate(240.813,264.2349)"
           id="g742"><path
             id="path744"
             style="fill:#080638;fill-opacity:1;fill-rule:nonzero;stroke:none"
             d="m 0,0 c -0.279,-0.921 -0.482,-1.87 -0.641,-2.819 -0.122,-0.738 -0.31,-1.54 -0.15,-2.278 0.031,-0.144 0.225,-0.137 0.292,-0.031 0.419,0.664 0.535,1.523 0.729,2.278 0.225,0.874 0.469,1.746 0.668,2.626 C 1.031,0.36 0.173,0.568 0,0" /></g><g
           transform="translate(141.3057,112.292)"
           id="g746"><path
             id="path748"
             style="fill:#080638;fill-opacity:1;fill-rule:nonzero;stroke:none"
             d="m 0,0 c -4.047,5.945 -2.802,4.296 -6.916,10.195 -2.013,2.887 -15.258,21.844 -17.608,24.207 -0.052,0.052 -0.152,-0.019 -0.12,-0.085 C -23.181,31.322 -9.607,12.599 -7.539,9.752 -3.312,3.933 -4.462,5.649 -0.171,-0.121 -0.09,-0.229 0.076,-0.111 0,0" /></g><g
           transform="translate(231.2759,355.1099)"
           id="g750"><path
             id="path752"
             style="fill:#fb6a55;fill-opacity:1;fill-rule:nonzero;stroke:none"
             d="m 0,0 c 0.419,-8.101 12.63,-51.142 26.545,-60.177 13.022,-8.455 49.212,-2.571 56.843,-0.251 3.346,1.018 -2.764,21.321 -5.775,23.539 -3.011,2.217 -34.715,-2.12 -37.362,-1.22 C 37.603,-37.21 22.661,-18.44 15.22,-7.112 10.522,0.04 -0.295,5.707 0,0" /></g><g
           transform="translate(231.1025,356.6646)"
           id="g754"><path
             id="path756"
             style="fill:#ffc800;fill-opacity:1;fill-rule:nonzero;stroke:none"
             d="m 0,0 c -1.526,-6.575 6.749,-38.409 7.524,-38.444 0.776,-0.035 22.25,10.906 22.297,11.94 0.047,1.034 -10.102,14.667 -14.884,20.107 C 10.155,-0.957 1.102,4.747 0,0" /></g><g
           transform="translate(257.7935,334.27)"
           id="g758"><path
             id="path760"
             style="fill:#080638;fill-opacity:1;fill-rule:nonzero;stroke:none"
             d="m 0,0 c -3.48,-1.651 -16.981,-9.263 -20.27,-11.282 -0.23,-0.141 -0.027,-0.469 0.209,-0.356 3.478,1.679 17.081,9.13 20.285,11.258 C 0.463,-0.221 0.254,0.121 0,0" /></g><g
           transform="translate(222.4888,356.6406)"
           id="g762"><path
             id="path764"
             style="fill:#ffffff;fill-opacity:1;fill-rule:nonzero;stroke:none"
             d="m 0,0 c -8.54,-5.434 -14.112,-15.023 -16.593,-23.765 -2.482,-8.742 -8.966,-37.167 -7.55,-37.963 1.415,-0.795 18.751,-13.296 34.014,-10.435 15.262,2.861 21.455,6.836 23.401,9.06 1.947,2.225 -6.189,41.959 -7.988,49.112 C 23.485,-6.839 17.913,1.081 16.226,1.298 14.539,1.516 3.254,2.07 0,0" /></g><g
           transform="translate(241.9839,353.9541)"
           id="g766"><path
             id="path768"
             style="fill:#dadafd;fill-opacity:1;fill-rule:nonzero;stroke:none"
             d="m 0,0 c -0.023,0.206 -0.318,0.216 -0.328,0 -0.117,-2.651 0.099,-5.629 -1.974,-7.649 -2.29,-2.23 -5.928,-0.963 -8.405,0.262 -3.862,1.911 -6.767,5.187 -9.11,8.729 -0.087,0.131 -0.291,0.015 -0.212,-0.124 2.676,-4.731 6.957,-9.094 12.402,-10.409 C -1.481,-10.676 0.604,-5.235 0,0" /></g><g
           transform="translate(227.7261,278.4722)"
           id="g770"><path
             id="path772"
             style="fill:#ffc800;fill-opacity:1;fill-rule:nonzero;stroke:none"
             d="m 0,0 c -0.315,-0.162 -6.583,0.687 -13.9,3.349 -0.172,0.057 -0.325,0.105 -0.487,0.172 -0.181,0.076 -0.372,0.143 -0.563,0.209 -0.133,0.058 -0.258,0.105 -0.391,0.153 -0.153,0.067 -0.315,0.124 -0.468,0.181 -0.057,0.019 -0.104,0.039 -0.152,0.058 -0.277,0.114 -0.544,0.229 -0.811,0.343 -0.162,0.067 -0.315,0.134 -0.477,0.21 -0.324,0.124 -0.639,0.267 -0.963,0.401 -0.153,0.076 -0.315,0.153 -0.468,0.219 -4.923,2.252 -9.846,5.333 -13.452,9.483 -1.631,1.87 4.446,22.792 8.711,36.578 0.047,0.134 0.095,0.286 0.133,0.42 0.181,0.591 0.372,1.164 0.544,1.726 0.048,0.153 0.095,0.296 0.143,0.439 0.019,0.077 0.038,0.153 0.057,0.22 0.172,0.525 0.324,1.03 0.477,1.517 0.057,0.143 0.095,0.286 0.134,0.42 0.009,0.038 0.028,0.086 0.038,0.124 0.191,0.563 0.353,1.097 0.524,1.612 v 0.01 c 0.039,0.143 0.086,0.286 0.134,0.429 0.515,1.612 0.935,2.919 1.231,3.807 2.471,7.508 15.97,17.811 15.97,17.811 0,0 4.627,-79.595 4.036,-79.891" /></g><g
           transform="translate(239.9302,357.4468)"
           id="g774"><path
             id="path776"
             style="fill:#ffc800;fill-opacity:1;fill-rule:nonzero;stroke:none"
             d="m 0,0 c 0,0 10.81,-72.795 11.832,-73.438 1.022,-0.644 6.017,6.215 6.351,9.779 0.334,3.564 -9.051,49.167 -11.086,53.22 C 5.062,-6.386 0,0 0,0" /></g><g
           transform="translate(250.3262,334.9395)"
           id="g778"><path
             id="path780"
             style="fill:#080638;fill-opacity:1;fill-rule:nonzero;stroke:none"
             d="M 0,0 C -0.115,1.297 -0.241,2.592 -0.291,3.895 -0.293,3.967 -0.401,3.968 -0.402,3.896 -0.42,3.15 -0.428,2.403 -0.409,1.657 -0.899,3.655 -1.385,5.655 -1.89,7.648 -1.917,7.756 -2.076,7.711 -2.055,7.604 0.385,-4.75 3.119,-17.073 6.164,-29.293 6.219,-29.514 6.546,-29.421 6.502,-29.202 4.533,-19.432 2.354,-9.69 0,0" /></g><g
           transform="translate(218.793,343.2036)"
           id="g782"><path
             id="path784"
             style="fill:#080638;fill-opacity:1;fill-rule:nonzero;stroke:none"
             d="m 0,0 -6.017,-61.001 c -0.133,0.057 -0.257,0.105 -0.391,0.153 -0.153,0.067 -0.315,0.124 -0.467,0.181 -0.058,0.019 -0.105,0.038 -0.153,0.057 -0.277,0.115 -0.544,0.229 -0.811,0.344 -0.162,0.066 -0.315,0.133 -0.477,0.209 -0.324,0.124 -0.639,0.268 -0.963,0.401 -0.153,0.076 -0.315,0.153 -0.468,0.219 -4.923,2.252 -9.846,5.334 -13.452,9.484 -1.631,1.87 4.446,22.792 8.711,36.578 0.047,0.133 0.095,0.286 0.133,0.419 0.181,0.592 0.372,1.164 0.544,1.727 0.048,0.153 0.095,0.296 0.143,0.439 0.019,0.077 0.038,0.153 0.057,0.22 0.172,0.524 0.324,1.03 0.477,1.516 0.057,0.143 0.095,0.286 0.134,0.42 0.009,0.038 0.028,0.086 0.038,0.124 z" /></g><g
           transform="translate(237.4053,348.5283)"
           id="g786"><path
             id="path788"
             style="fill:#fb6a55;fill-opacity:1;fill-rule:nonzero;stroke:none"
             d="m 0,0 c -3.573,-1.176 -10.312,3.86 -13.172,8.164 -0.195,0.296 0,3.601 0.046,7.628 0.019,2.443 -0.019,5.165 -0.231,7.645 -0.047,0.51 1.768,-0.277 1.768,-0.277 l 3.276,-0.5 10.84,-1.666 c 0,0 -1.083,-5.332 -0.685,-9.655 C 1.879,10.978 1.944,10.645 2.037,10.33 2.046,10.284 2.064,10.229 2.073,10.164 2.555,8.257 3.453,1.138 0,0" /></g><g
           transform="translate(239.4419,358.8584)"
           id="g790"><path
             id="path792"
             style="fill:#080638;fill-opacity:1;fill-rule:nonzero;stroke:none"
             d="m 0,0 c 0.009,-0.046 0.027,-0.102 0.037,-0.167 -0.481,-0.11 -1.009,-0.185 -1.592,-0.222 -10.497,-0.666 -12.95,12.543 -12.95,12.543 l 4.156,0.176 10.839,-1.666 c 0,0 -1.083,-5.332 -0.684,-9.655 C -0.158,0.648 -0.093,0.315 0,0" /></g><g
           transform="translate(241.543,398.4941)"
           id="g794"><path
             id="path796"
             style="fill:#080638;fill-opacity:1;fill-rule:nonzero;stroke:none"
             d="M 0,0 C 0,0 5.168,-2.603 5.747,-8.089 6.326,-13.575 4.674,-19.163 4.186,-19.406 3.697,-19.649 0,0 0,0" /></g><g
           transform="translate(220.5908,391.5649)"
           id="g798"><path
             id="path800"
             style="fill:#fb6a55;fill-opacity:1;fill-rule:nonzero;stroke:none"
             d="m 0,0 c -1.92,-5.462 0.332,-21.567 4.118,-25.295 5.488,-5.406 14.807,-6.291 19.484,0.382 4.533,6.469 1.227,27.406 -3.033,30.829 C 14.295,10.957 2.836,8.068 0,0" /></g><g
           transform="translate(221.002,375.3667)"
           id="g802"><path
             id="path804"
             style="fill:#080638;fill-opacity:1;fill-rule:nonzero;stroke:none"
             d="m 0,0 c 1.955,-0.281 3.225,5.666 3.495,7.917 0.237,1.985 -0.089,8.112 -0.062,8.538 0.027,0.425 8.968,-4.065 13.457,-1.956 4.488,2.109 6.971,6.821 6.728,8.801 -0.243,1.979 -6.864,6.068 -11.956,5.534 C 6.569,28.3 0.733,20.809 0.733,20.809 c 0,0 1.89,3.138 1.775,3.353 -0.114,0.215 -3.175,-1.6 -3.412,-4.018 0,0 0.19,3.02 -0.066,3.036 -0.255,0.015 -2.401,-2.882 -1.532,-4.687 0,0 -2.538,-3 -2.374,-5.829 C -4.712,9.835 -2.297,0.33 0,0" /></g><g
           transform="translate(241.0806,391.3706)"
           id="g806"><path
             id="path808"
             style="fill:#080638;fill-opacity:1;fill-rule:nonzero;stroke:none"
             d="m 0,0 c -1.327,-0.881 -2.647,-1.829 -4.195,-2.284 -1.673,-0.493 -3.512,-0.341 -5.197,0.02 -1.724,0.369 -3.343,1.041 -4.858,1.937 -1.328,0.785 -2.554,1.79 -3.944,2.456 -0.348,0.167 -0.641,-0.342 -0.403,-0.602 2.354,-2.563 6.101,-4.424 9.515,-4.947 3.591,-0.55 6.688,0.716 9.105,3.385 C 0.038,-0.019 0.021,0.014 0,0" /></g><g
           transform="translate(223.3208,376.4009)"
           id="g810"><path
             id="path812"
             style="fill:#fb6a55;fill-opacity:1;fill-rule:nonzero;stroke:none"
             d="m 0,0 c 0,0 -3.503,5.25 -5.878,4.012 -2.375,-1.238 0.181,-8.794 2.914,-9.88 2.732,-1.086 3.787,1.425 3.787,1.425 z" /></g><g
           transform="translate(218.229,378.2651)"
           id="g814"><path
             id="path816"
             style="fill:#080638;fill-opacity:1;fill-rule:nonzero;stroke:none"
             d="m 0,0 c -0.044,0.005 -0.054,-0.057 -0.016,-0.073 1.914,-0.825 2.892,-2.638 3.564,-4.511 -0.559,0.728 -1.332,1.136 -2.305,0.473 -0.051,-0.035 -0.004,-0.115 0.05,-0.104 0.795,0.152 1.363,0.003 1.884,-0.643 0.368,-0.457 0.615,-1.03 0.875,-1.554 0.087,-0.175 0.401,-0.089 0.339,0.111 -0.005,0.015 -0.01,0.03 -0.015,0.045 C 4.479,-3.794 2.639,-0.305 0,0" /></g><g
           transform="translate(224.3193,366.4414)"
           id="g818"><path
             id="path820"
             style="fill:none;stroke:#ffaba1;stroke-width:0.75;stroke-linecap:round;stroke-linejoin:round;stroke-miterlimit:4;stroke-dasharray:none;stroke-opacity:1"
             d="M 0,0 C -0.004,0 -0.004,0.006 0,0.006" /></g><g
           transform="translate(234.4497,380.4248)"
           id="g822"><path
             id="path824"
             style="fill:#080638;fill-opacity:1;fill-rule:nonzero;stroke:none"
             d="m 0,0 c -0.014,0.04 -0.078,-0.063 -0.07,-0.107 0.18,-1.081 0.205,-2.35 -0.728,-2.842 -0.029,-0.015 -0.018,-0.07 0.017,-0.06 C 0.395,-2.679 0.345,-0.995 0,0" /></g><g
           transform="translate(233.3276,381.4272)"
           id="g826"><path
             id="path828"
             style="fill:#080638;fill-opacity:1;fill-rule:nonzero;stroke:none"
             d="M 0,0 C -1.764,-0.103 -1.428,-3.623 0.206,-3.527 1.814,-3.434 1.479,0.086 0,0" /></g><g
           transform="translate(241.124,381.2085)"
           id="g830"><path
             id="path832"
             style="fill:#080638;fill-opacity:1;fill-rule:nonzero;stroke:none"
             d="M 0,0 C 0.004,0.042 0.09,-0.043 0.093,-0.088 0.163,-1.182 0.426,-2.423 1.447,-2.691 1.479,-2.699 1.48,-2.754 1.443,-2.752 0.224,-2.698 -0.11,-1.047 0,0" /></g><g
           transform="translate(241.9893,382.4399)"
           id="g834"><path
             id="path836"
             style="fill:#080638;fill-opacity:1;fill-rule:nonzero;stroke:none"
             d="M 0,0 C 1.741,0.3 2.213,-3.204 0.601,-3.482 -0.987,-3.756 -1.459,-0.251 0,0" /></g><g
           transform="translate(231.7852,382.9043)"
           id="g838"><path
             id="path840"
             style="fill:#080638;fill-opacity:1;fill-rule:nonzero;stroke:none"
             d="M 0,0 C 0.468,0.167 0.872,0.398 1.317,0.61 1.821,0.85 2.246,0.989 2.542,1.489 2.702,1.757 2.583,2.199 2.337,2.378 1.764,2.795 1.076,2.655 0.458,2.391 -0.211,2.105 -0.654,1.713 -0.992,1.069 -1.32,0.445 -0.617,-0.219 0,0" /></g><g
           transform="translate(243.1812,384.3418)"
           id="g842"><path
             id="path844"
             style="fill:#080638;fill-opacity:1;fill-rule:nonzero;stroke:none"
             d="M 0,0 C -0.496,0.033 -0.947,0.146 -1.434,0.23 -1.982,0.324 -2.43,0.342 -2.851,0.743 -3.077,0.958 -3.082,1.416 -2.895,1.655 -2.457,2.212 -1.755,2.263 -1.09,2.177 -0.368,2.083 0.165,1.827 0.665,1.299 1.15,0.787 0.654,-0.043 0,0" /></g><g
           transform="translate(235.7124,370.895)"
           id="g846"><path
             id="path848"
             style="fill:#080638;fill-opacity:1;fill-rule:nonzero;stroke:none"
             d="M 0,0 C 0.286,-0.23 0.58,-0.557 0.979,-0.553 1.361,-0.548 1.79,-0.334 2.125,-0.167 2.158,-0.15 2.196,-0.183 2.177,-0.218 1.934,-0.664 1.363,-0.982 0.85,-0.942 0.348,-0.903 0.063,-0.5 -0.1,-0.059 -0.123,0.002 -0.042,0.034 0,0" /></g><g
           transform="translate(235.2891,373.9468)"
           id="g850"><path
             id="path852"
             style="fill:#080638;fill-opacity:1;fill-rule:nonzero;stroke:none"
             d="m 0,0 c 0.7,-0.888 1.647,-1.32 2.635,-1.416 0.442,-0.045 0.899,-0.017 1.342,0.066 0.087,0.011 0.174,0.029 0.252,0.054 0.079,0.017 0.149,0.033 0.235,0.06 0.126,0.03 0.186,0.142 0.196,0.264 l -0.001,0.009 c -0.005,0.039 -0.008,0.071 -0.021,0.11 L 4.637,-0.845 4.626,-0.75 C 4.569,0.092 4.366,1.361 4.366,1.361 4.687,1.237 6.318,0.682 6.251,1.119 5.689,4.729 5.063,8.744 3.741,12.217 3.703,12.334 3.522,12.289 3.544,12.17 3.948,8.679 4.962,5.283 5.424,1.782 4.907,1.924 4.059,2.198 3.621,2.147 3.505,2.102 4.057,-0.298 4.053,-0.678 c 0,0 0.001,-0.016 -0.004,-0.041 C 2.656,-1.034 1.552,-0.709 0.092,0.108 0.005,0.162 -0.074,0.081 0,0" /></g><g
           transform="translate(329.4404,295.3999)"
           id="g854"><path
             id="path856"
             style="fill:#a9a7db;fill-opacity:1;fill-rule:nonzero;stroke:none"
             d="m 0,0 -158.392,-82.844 -26.986,51.594 158.392,82.845 z" /></g><g
           transform="translate(199.9053,264.4814)"
           id="g858"><path
             id="path860"
             style="fill:#dadafd;fill-opacity:1;fill-rule:nonzero;stroke:none"
             d="m 0,0 c 2.688,-5.14 2.716,-10.983 0.564,-15.917 -1.621,-3.731 -4.466,-6.961 -8.368,-9.001 -3.901,-2.041 -8.176,-2.536 -12.165,-1.739 -5.281,1.047 -10.064,4.402 -12.753,9.543 -4.729,9.041 -1.245,20.202 7.796,24.932 C -15.884,12.547 -4.729,9.042 0,0" /></g><g
           transform="translate(187.2661,263.5439)"
           id="g862"><path
             id="path864"
             style="fill:#ffffff;fill-opacity:1;fill-rule:nonzero;stroke:none"
             d="m 0,0 c 1.748,-3.342 0.456,-7.469 -2.886,-9.217 -3.343,-1.748 -7.469,-0.456 -9.217,2.886 -1.748,3.343 -0.456,7.469 2.886,9.217 C -5.875,4.634 -1.748,3.342 0,0" /></g><g
           transform="translate(200.0874,249.3979)"
           id="g866"><path
             id="path868"
             style="fill:#ffffff;fill-opacity:1;fill-rule:nonzero;stroke:none"
             d="m 0,0 c 0.142,-0.271 0.269,-0.548 0.382,-0.833 -1.621,-3.732 -4.466,-6.961 -8.368,-9.001 -3.901,-2.041 -8.176,-2.537 -12.165,-1.74 -0.17,0.256 -0.326,0.52 -0.467,0.79 -2.979,5.696 -0.786,12.736 4.909,15.716 C -10.013,7.91 -2.979,5.696 0,0" /></g><g
           transform="translate(297.6016,318.8945)"
           id="g870"><path
             id="path872"
             style="fill:#45459d;fill-opacity:1;fill-rule:nonzero;stroke:none"
             d="m 0,0 -88.741,-46.415 -0.768,1.469 88.741,46.415 z" /></g><g
           transform="translate(242.3604,283.9634)"
           id="g874"><path
             id="path876"
             style="fill:#ffffff;fill-opacity:1;fill-rule:nonzero;stroke:none"
             d="m 0,0 -31.02,-16.225 -0.768,1.47 31.02,16.224 z" /></g><g
           transform="translate(302.561,309.4126)"
           id="g878"><path
             id="path880"
             style="fill:#ffffff;fill-opacity:1;fill-rule:nonzero;stroke:none"
             d="m 0,0 -88.741,-46.415 -0.768,1.47 88.74,46.414 z" /></g><g
           transform="translate(305.0405,304.6719)"
           id="g882"><path
             id="path884"
             style="fill:#ffffff;fill-opacity:1;fill-rule:nonzero;stroke:none"
             d="m 0,0 -88.741,-46.415 -0.768,1.47 88.741,46.414 z" /></g><g
           transform="translate(273.0293,281.8916)"
           id="g886"><path
             id="path888"
             style="fill:#ffffff;fill-opacity:1;fill-rule:nonzero;stroke:none"
             d="m 0,0 -54.25,-28.375 -0.768,1.469 54.25,28.375 z" /></g><g
           transform="translate(205.6035,288.3164)"
           id="g890"><path
             id="path892"
             style="fill:#ffc800;fill-opacity:1;fill-rule:nonzero;stroke:none"
             d="m 0,0 2.512,-1.833 2.934,1.03 -0.967,-2.955 1.886,-2.472 -3.11,0.006 -1.768,-2.558 -0.955,2.96 -2.979,0.891 2.52,1.823 z" /></g><g
           transform="translate(216.7319,294.1372)"
           id="g894"><path
             id="path896"
             style="fill:#ffc800;fill-opacity:1;fill-rule:nonzero;stroke:none"
             d="m 0,0 2.512,-1.833 2.934,1.03 -0.967,-2.956 1.886,-2.472 -3.11,0.007 -1.768,-2.558 -0.955,2.959 -2.979,0.891 2.52,1.823 z" /></g><g
           transform="translate(227.8599,299.9575)"
           id="g898"><path
             id="path900"
             style="fill:#ffc800;fill-opacity:1;fill-rule:nonzero;stroke:none"
             d="m 0,0 2.512,-1.833 2.934,1.03 -0.967,-2.955 1.886,-2.472 -3.11,0.006 -1.768,-2.558 -0.954,2.96 -2.98,0.891 2.52,1.822 z" /></g><g
           transform="translate(238.9883,305.7778)"
           id="g902"><path
             id="path904"
             style="fill:#ffc800;fill-opacity:1;fill-rule:nonzero;stroke:none"
             d="m 0,0 2.512,-1.833 2.934,1.03 -0.967,-2.955 1.886,-2.472 -3.11,0.006 -1.768,-2.558 -0.955,2.96 -2.979,0.891 2.52,1.822 z" /></g><g
           transform="translate(250.1162,311.5986)"
           id="g906"><path
             id="path908"
             style="fill:#ffc800;fill-opacity:1;fill-rule:nonzero;stroke:none"
             d="m 0,0 2.512,-1.833 2.934,1.03 -0.967,-2.956 1.886,-2.472 -3.11,0.007 -1.768,-2.558 -0.954,2.959 -2.979,0.892 2.519,1.822 z" /></g><g
           transform="translate(315.9878,327.313)"
           id="g910"><path
             id="path912"
             style="fill:#fb6a55;fill-opacity:1;fill-rule:nonzero;stroke:none"
             d="m 0,0 c 2.462,-2.677 7.419,-5.412 8.521,-7.88 0.995,-2.228 -0.675,-3.638 -0.675,-3.638 0,0 2.952,-0.483 3.583,-2.888 0.324,-1.237 -1.367,-2.842 -1.367,-2.842 0,0 2.349,-0.491 2.777,-2.664 0.342,-1.731 -1.404,-3.081 -1.404,-3.081 0,0 2.034,-1.52 1.816,-3.396 -0.44,-3.803 -14.91,-8.285 -18.796,-3.647 -1.811,2.161 1.782,3.064 1.782,3.064 0,0 -5.481,-0.05 -6.481,2.91 -1.001,2.959 3.74,3.85 3.74,3.85 0,0 -5.313,-0.002 -6.04,3.171 -0.758,3.303 4.136,3.382 4.136,3.382 0,0 -3.893,1.185 -3.894,3.742 -0.001,4.221 9.578,1.555 12.525,3.294 l -2.827,5.285 z" /></g><g
           transform="translate(320.2998,323.6533)"
           id="g914"><path
             id="path916"
             style="fill:#fb6a55;fill-opacity:1;fill-rule:nonzero;stroke:none"
             d="M 0,0 C -2.109,2.737 0.54,7.746 -1.102,10.653 -3.321,14.587 -8.428,7.973 -6.666,1.854 L -4.412,-2.36 Z" /></g><g
           transform="translate(327.1777,304.0669)"
           id="g918"><path
             id="path920"
             style="fill:#080638;fill-opacity:1;fill-rule:nonzero;stroke:none"
             d="m 0,0 c 0.047,0.019 0.083,-0.043 0.038,-0.07 -4.401,-2.634 -10.042,-4.179 -15.181,-3.728 -0.169,0.014 -0.218,0.295 -0.029,0.314 C -9.787,-2.936 -5.051,-2.02 0,0" /></g><g
           transform="translate(326.1289,310.0562)"
           id="g922"><path
             id="path924"
             style="fill:#080638;fill-opacity:1;fill-rule:nonzero;stroke:none"
             d="m 0,0 c 0.055,0.022 0.092,-0.068 0.038,-0.101 -4.549,-2.689 -10.952,-4.254 -16.814,-3.038 -0.201,0.042 -0.34,0.281 -0.104,0.25 C -12.921,-3.402 -4.537,-1.842 0,0" /></g><g
           transform="translate(307.1802,313.877)"
           id="g926"><path
             id="path928"
             style="fill:#080638;fill-opacity:1;fill-rule:nonzero;stroke:none"
             d="M 0,0 C 5.667,-0.95 11.067,0.013 16.472,1.799 16.542,1.822 16.568,1.72 16.515,1.685 14.109,0.09 10.545,-0.689 7.72,-1.061 5.015,-1.417 2.503,-1.194 -0.033,-0.198 -0.131,-0.16 -0.121,0.02 0,0" /></g><g
           transform="translate(216.7158,354.5449)"
           id="g930"><path
             id="path932"
             style="fill:#fb6a55;fill-opacity:1;fill-rule:nonzero;stroke:none"
             d="m 0,0 c -6.87,-4.312 -39.509,-33.34 -40.62,-49.895 -1.038,-15.491 15.717,-36.169 20.28,-42.772 1.988,-2.878 21.895,9.211 22.364,12.921 0.47,3.71 -16.191,25.884 -16.695,28.635 -0.504,2.75 9.609,22.338 15.876,34.355 C 5.161,-9.169 4.84,3.039 0,0" /></g><g
           transform="translate(228.9375,255.7344)"
           id="g934"><path
             id="path936"
             style="fill:#fb6a55;fill-opacity:1;fill-rule:nonzero;stroke:none"
             d="m 0,0 c 2.67,-3.464 9.049,-5.816 7.17,-8.472 -1.673,-2.366 -5.935,-0.307 -5.935,-0.307 0,0 4.052,-3.871 1.527,-5.905 -2.525,-2.033 -6.733,1.177 -6.733,1.177 0,0 3.518,-3.07 0.854,-4.918 -2.664,-1.848 -6.737,0.228 -6.737,0.228 0,0 0.402,-1.569 -2.066,-2.028 -3.532,-0.657 -9.364,4.467 -11.774,7.867 -2.411,3.398 -8.724,17.624 -9.65,19.82 l 21.682,15.659 c 0,0 7.076,-4.066 10.412,-6.566 C 2.085,14.056 10.79,2.769 8.135,0.419 5.48,-1.93 -0.531,6.146 -2.435,7.801 -4.338,9.456 -5.046,9.297 -4.768,7.883 -4.585,6.957 -1.181,1.533 0,0" /></g><g
           transform="translate(230.0234,247.1514)"
           id="g938"><path
             id="path940"
             style="fill:#080638;fill-opacity:1;fill-rule:nonzero;stroke:none"
             d="m 0,0 c -5.733,3.289 -7.672,5.72 -10.716,11.47 -0.06,0.113 -0.241,0.049 -0.189,-0.074 C -8.437,5.494 -6.444,2.094 -0.145,-0.286 0.163,-0.402 0.273,-0.156 0,0" /></g><g
           transform="translate(225.2441,242.1465)"
           id="g942"><path
             id="path944"
             style="fill:#080638;fill-opacity:1;fill-rule:nonzero;stroke:none"
             d="m 0,0 c -5.656,3.937 -7.782,6.554 -11.414,12.342 -0.051,0.082 -0.195,0.004 -0.15,-0.083 C -8.477,6.282 -6.411,2.937 -0.243,-0.254 0.036,-0.398 0.259,-0.18 0,0" /></g><g
           transform="translate(219.0542,237.624)"
           id="g946"><path
             id="path948"
             style="fill:#080638;fill-opacity:1;fill-rule:nonzero;stroke:none"
             d="m 0,0 c -5.201,4.206 -7.657,6.976 -10.46,13.048 -0.067,0.143 -0.282,0.06 -0.229,-0.09 C -8.433,6.488 -5.394,3.01 -0.145,-0.145 0.213,-0.359 0.327,-0.265 0,0" /></g><g
           transform="translate(217.9888,355.4541)"
           id="g950"><path
             id="path952"
             style="fill:#ffc800;fill-opacity:1;fill-rule:nonzero;stroke:none"
             d="m 0,0 c -6.485,-1.871 -30.253,-24.607 -29.906,-25.302 0.347,-0.694 20.364,-14.116 21.29,-13.653 0.926,0.463 7.887,15.968 10.307,22.794 C 4.112,-9.334 4.682,1.351 0,0" /></g><g
           transform="translate(211.4365,321.2344)"
           id="g954"><path
             id="path956"
             style="fill:#080638;fill-opacity:1;fill-rule:nonzero;stroke:none"
             d="M 0,0 C -3.137,2.235 -16.362,10.316 -19.729,12.205 -19.963,12.336 -20.151,12 -19.937,11.849 -16.777,9.629 -3.642,1.38 -0.223,-0.381 0.033,-0.513 0.229,-0.164 0,0" /></g></g></g></g></svg>